<?xml version="1.0" standalone="no"?>
<!DOCTYPE svg PUBLIC "-//W3C//DTD SVG 1.1//EN" "http://www.w3.org/Graphics/SVG/1.1/DTD/svg11.dtd" >
<svg xmlns="http://www.w3.org/2000/svg" xmlns:xlink="http://www.w3.org/1999/xlink" version="1.1">
<metadata></metadata>
<defs>
<font id="albertsonregular" horiz-adv-x="242" >
<font-face units-per-em="1000" ascent="750" descent="-250" />
<missing-glyph horiz-adv-x="290" />
<glyph horiz-adv-x="0" />
<glyph unicode="&#xd;" horiz-adv-x="290" />
<glyph horiz-adv-x="0" />
<glyph horiz-adv-x="0" />
<glyph unicode=" "  horiz-adv-x="290" />
<glyph unicode="&#x09;" horiz-adv-x="290" />
<glyph unicode="&#xa0;" horiz-adv-x="290" />
<glyph unicode="!" horiz-adv-x="228" d="M165 490q0 -17 4 -27t9 -16q5 -7 12 -10q-7 -3 -13 -9q-5 -5 -10 -14.5t-7 -23.5l-8 -151q-1 -14 4.5 -22t22.5 -10q-4 -3 -9 -6q-10 -5 -24 -5q-8 0 -14 2t-10 4q-4 3 -8 7q-4 -4 -8 -7q-4 -2 -10 -4t-14 -2q-14 0 -24 5q-5 3 -9 6q17 2 22.5 10t4.5 22l-8 155 q-2 14 -7 23.5t-10 14.5q-6 6 -14 9q7 3 12 10q5 6 9 16t4 27l-6 120q-2 34 -12.5 55.5t-39.5 24.5q5 9 13 16q7 6 16.5 11.5t23.5 5.5t24.5 -6t18.5 -14q8 -9 14 -19q5 10 14 19q7 8 18 14t25 6q13 0 23 -5.5t17 -11.5q8 -7 13 -16q-29 -3 -39.5 -24.5t-12.5 -55.5z M114 128q26 0 45 -19t19 -45q0 -27 -19 -46t-45 -19q-27 0 -45.5 19t-18.5 46q0 26 18.5 45t45.5 19z" />
<glyph unicode="&#x22;" horiz-adv-x="222" d="M32 524l-28 202h100l-27 -202h-45zM118 726h100l-28 -202h-45z" />
<glyph unicode="#" horiz-adv-x="480" d="M469 417h-97l-11 -108h97l-7 -73h-97l-24 -237h-73l24 237h-108l-24 -237h-73l24 237h-96l7 73h97l10 108h-96l7 73h97l24 237h73l-24 -237h108l24 237h73l-24 -237h96zM288 309l11 108h-107l-11 -108h107z" />
<glyph unicode="$" horiz-adv-x="302" d="M269 541q0 -21 5.5 -33.5t23.5 -14.5q-4 -5 -9 -9q-11 -9 -24 -9q-9 0 -15 3t-11 7t-9 11q-3 -7 -8 -11t-11.5 -7t-14.5 -3t-13.5 2.5t-10.5 6.5t-9 9q18 2 23.5 15t5.5 33q0 47 -8.5 62.5t-32.5 15.5q-20 0 -30.5 -12.5t-10.5 -47.5q0 -31 12.5 -54.5t30.5 -43.5 q10 -7 18 -9.5t13 -2.5q6 -1 11 1q-1 -5 -1 -11q0 -5 2 -12t8 -16q26 -26 45.5 -57t19.5 -77q0 -57 -27.5 -81.5t-72.5 -28.5v-66h-37v66q-44 3 -71.5 28t-27.5 87q0 21 -5.5 33.5t-23.5 14.5q4 5 9 9q5 3 10.5 6t13.5 3t14.5 -3.5t11.5 -7.5t8 -10q4 6 9 10t11 7.5t15 3.5 q8 0 13.5 -3t10.5 -6q5 -4 9 -9q-18 -2 -23.5 -15t-5.5 -33q0 -23 2 -38t6.5 -23.5t12.5 -12t20 -3.5q20 0 30.5 12t10.5 47q0 33 -10.5 57.5t-26.5 44.5q-18 9 -27 9q-5 0 -10 -1q1 4 1 9q0 11 -8 27q-15 13 -29 26.5t-25 28.5t-17.5 32.5t-6.5 38.5q0 65 27.5 91t71.5 29 v65h37v-65q45 -3 72.5 -28t27.5 -87z" />
<glyph unicode="%" horiz-adv-x="602" d="M576 276q1 -14 4.5 -23t7.5 -14q4 -6 10 -9q-6 -3 -10 -9q-4 -5 -7.5 -14t-4.5 -23v-13q0 -50 -8 -83t-22.5 -53t-34.5 -28t-44 -8t-44.5 8t-34.5 28t-22 53t-8 83v13q-2 14 -5 23t-7 14q-4 6 -10 9q6 3 10 9q4 5 7 14t5 23v7q0 49 8 82.5t22 53t34.5 28t44.5 8.5 t44 -8.5t34.5 -28t22.5 -53t8 -82.5v-7zM505 313q0 57 -7.5 81.5t-30.5 24.5t-30.5 -24.5t-7.5 -81.5v-37q1 -14 4 -23t7 -14q4 -6 10 -9q-6 -3 -10 -9q-4 -5 -7 -14t-4 -23v-43q0 -57 7.5 -81.5t30.5 -24.5t30.5 24.5t7.5 81.5v43q-1 14 -4 23t-7 14q-4 6 -10 9q6 3 10 9 q4 5 7 14t4 23v37zM244 443q0 -50 -8 -82.5t-22.5 -52.5t-34.5 -28t-44 -8t-44.5 8t-34.5 28t-22 52.5t-8 82.5v14q-2 14 -5 23t-7 14q-4 6 -10 9q6 3 10 9q4 5 7 14t5 23v6q0 50 8 83t22 53t34.5 28t44.5 8t44 -8t34.5 -28t22.5 -53t8 -83v-6q1 -14 4.5 -23t7.5 -14 q4 -6 10 -9q-6 -3 -10 -9q-4 -5 -7.5 -14t-4.5 -23v-14zM97 414q0 -57 7.5 -82t30.5 -25t30.5 25t7.5 82v43q-1 14 -4 23t-7 14q-4 6 -10 9q6 3 10 9q4 5 7 14t4 23v36q0 57 -7.5 82t-30.5 25t-30.5 -25t-7.5 -82v-36q1 -14 4 -23t7 -14q4 -6 10 -9q-6 -3 -10 -9 q-4 -5 -7 -14t-4 -23v-43zM421 661l-196 -596h-44l196 596h44z" />
<glyph unicode="&#x26;" horiz-adv-x="480" d="M308 354q56 0 95 -26t57 -65.5t15 -85.5t-30.5 -85.5t-81 -65.5t-134.5 -26q-32 0 -71 9t-73 33t-57.5 65.5t-23.5 107.5q0 37 10.5 68t28 55.5t40 42.5t47.5 30q-40 16 -67.5 50t-27.5 95q0 37 13.5 68.5t36.5 54t52 35.5t61 13h14q39 0 71 -11t55 -30t36 -44t13 -53 q0 -30 8.5 -49t35.5 -21q-5 -8 -13 -13q-7 -5 -16.5 -9t-20.5 -4q-13 0 -22.5 4.5t-15.5 10.5q-8 7 -13 16q-6 -9 -13 -16q-7 -6 -16 -10.5t-22 -4.5q-12 0 -21 4t-15 9q-7 5 -13 13q26 2 34.5 21t8.5 49q0 38 -16.5 59.5t-44.5 21.5t-45.5 -24t-17.5 -90q0 -28 7.5 -51.5 t26.5 -40t50.5 -24t78.5 -2.5l-43 -49q-19 0 -39 1t-40 5q-31 -16 -50.5 -48.5t-27.5 -71.5t-3.5 -81t20.5 -76t45 -56t71 -22q46 0 76.5 21t46 52t17.5 68t-8 68t-30.5 52t-49.5 21q-26 0 -37 -21.5t-7 -47t23.5 -47t54.5 -21.5q-9 -16 -20 -28q-11 -11 -26 -19t-38 -8 q-27 0 -45.5 16.5t-26.5 41.5t-4.5 54t19.5 54t45 41.5t73 16.5z" />
<glyph unicode="'" horiz-adv-x="108" d="M77 525h-46l-27 202h100l-27 -202v0z" />
<glyph unicode="(" horiz-adv-x="222" d="M218 728q-42 -41 -57.5 -99.5t-15.5 -146.5v-215q0 -88 15.5 -146t57.5 -100l-8 -10q-29 15 -59 41t-55.5 63t-42 85.5t-16.5 109.5q-2 22 -7 35.5t-11 21.5q-7 9 -15 13q8 4 15 13q6 8 11 21.5t7 35.5q2 58 19 105t42 82.5t54.5 60.5t57.5 40l8 -10v0z" />
<glyph unicode=")" horiz-adv-x="222" d="M185 440q1 -22 6.5 -35.5t11.5 -21.5q7 -10 15 -14q-8 -4 -15 -13q-6 -8 -11.5 -21.5t-6.5 -35.5q-2 -59 -19 -105.5t-42 -82t-54.5 -60.5t-57.5 -40l-8 10q42 42 57.5 100t15.5 146v215q0 88 -15.5 146.5t-57.5 99.5l8 10q28 -15 58.5 -41t56 -62.5t42 -85t16.5 -109.5z " />
<glyph unicode="*" horiz-adv-x="256" d="M252 607l-91 -8l69 -60l-67 -49l-35 85l-35 -85l-68 49l70 60l-91 8l25 79l79 -48l-22 89h83l-21 -89l79 48l25 -79v0z" />
<glyph unicode="+" horiz-adv-x="296" d="M182 474v-110h110v-67h-110v-110h-68v110h-110v67h110v110h68v0z" />
<glyph unicode="," horiz-adv-x="136" d="M68 128q26 0 45 -19t19 -45q0 -51 -16 -79.5t-35 -43.5q-22 -18 -50 -24q16 18 22 40t5 43q-23 4 -38.5 21.5t-15.5 42.5q0 26 18.5 45t45.5 19z" />
<glyph unicode="-" d="M238 369v-77h-234v77h234v0z" />
<glyph unicode="." horiz-adv-x="136" d="M68 128q26 0 45 -19t19 -45q0 -27 -19 -46t-45 -19q-27 0 -45.5 19t-18.5 46q0 26 18.5 45t45.5 19z" />
<glyph unicode="/" horiz-adv-x="252" d="M4 0l185 727h59l-185 -727h-59v0z" />
<glyph unicode="0" horiz-adv-x="426" d="M388 442q1 -23 6.5 -37t11.5 -22q7 -10 16 -14q-9 -4 -16 -14q-6 -8 -11.5 -22.5t-6.5 -37.5v-21q0 -80 -13 -132.5t-36 -84.5t-55 -45t-71 -13t-71 13t-55 45t-36 84.5t-13 132.5v21q-2 23 -7 37.5t-11 22.5q-7 10 -16 14q9 4 16 14q6 8 11 22t7 37v11q0 79 13 132 t36 84.5t55 44.5t71 13t71 -13t55 -44.5t36 -84.5t13 -132v-11zM274 500q0 92 -12.5 131t-48.5 39t-48.5 -39t-12.5 -131v-58q1 -23 6.5 -37t11.5 -22q7 -10 16 -14q-9 -4 -16 -14q-6 -8 -11.5 -22.5t-6.5 -37.5v-69q0 -91 12.5 -130.5t48.5 -39.5t48.5 39.5t12.5 130.5v69 q-2 23 -7 37.5t-11 22.5q-7 10 -16 14q9 4 16 14q6 8 11 22t7 37v58z" />
<glyph unicode="1" horiz-adv-x="260" d="M212 442q1 -23 6.5 -37t11.5 -22q7 -10 16 -14q-9 -4 -16 -14q-6 -8 -11.5 -22.5t-6.5 -37.5v-198q0 -31 8.5 -50t35.5 -21q-5 -8 -13 -13q-7 -5 -16.5 -9t-20.5 -4q-13 0 -22.5 4.5t-15.5 10.5q-8 7 -13 16q-6 -9 -13 -16q-7 -6 -16 -10.5t-22 -4.5q-12 0 -21 4t-15 9 q-7 5 -13 13q26 2 34.5 21t8.5 50v198q-2 23 -7 37.5t-11 22.5q-7 10 -16 14q9 4 16 14q6 8 11 22t7 37v145q-14 -9 -30.5 -9.5t-30.5 3.5q-17 4 -33 12q32 12 52.5 34t32.5 45q14 26 22 55l44 -31q5 8 13 15q6 6 15.5 11t22.5 5q11 0 20.5 -4.5t16.5 -9.5q8 -6 13 -13 q-27 -2 -35.5 -20.5t-8.5 -49.5v-188z" />
<glyph unicode="2" horiz-adv-x="406" d="M323 161q-4 31 8 49t28 27q18 11 43 14q-17 -42 -20.5 -86.5t0.5 -81.5q4 -43 15 -83h-204q-24 0 -40.5 4.5t-27.5 10.5q-12 6 -20 15v1q-5 -9 -13 -16q-7 -6 -16.5 -10.5t-22.5 -4.5q-12 0 -21 4t-15 9q-7 5 -13 13q26 2 35 21t9 50q0 48 7.5 86.5t20 70t29.5 57 t36 46.5q10 14 13.5 26t4.5 20q1 10 -2 17q7 -2 15 -2q7 0 16.5 2.5t22.5 10.5q15 16 28.5 32.5t23 34.5t15.5 38.5t6 45.5q0 51 -16.5 69.5t-45.5 18.5q-18 0 -29.5 -5t-18.5 -18t-10 -35.5t-3 -56.5q0 -30 9 -49t35 -21q-6 -8 -13 -14q-6 -5 -15.5 -9t-20.5 -4 q-13 0 -22.5 4.5t-15.5 10.5q-8 7 -13 16q-5 -9 -13 -16q-7 -6 -16.5 -10.5t-22.5 -4.5q-12 0 -21 4t-15 9q-7 6 -13 14q26 2 35 20.5t9 49.5q0 51 12.5 84t35.5 52.5t55 27.5t71 8t71 -8t55 -28.5t36 -55t13 -87.5q0 -32 -9.5 -57t-25.5 -47t-36.5 -41.5t-42.5 -39.5 q-8 -13 -11 -23t-3 -18q0 -9 2 -15q-5 2 -13 2q-16 0 -37 -11q-26 -33 -43 -75t-17 -102q0 -35 18.5 -50t40.5 -15h45q19 0 25.5 17t4.5 38t-10 39.5t-17 20.5q9 8 19 11q8 2 18 -1.5t18 -19.5z" />
<glyph unicode="3" horiz-adv-x="418" d="M317 383q20 -7 37.5 -19t31 -31.5t21 -48.5t7.5 -69q0 -66 -16.5 -107.5t-42.5 -65.5t-58.5 -33t-63.5 -9h-10q-39 0 -71 11t-55 29.5t-36 43.5t-13 53q0 31 -8.5 49.5t-35.5 20.5q5 7 13 13q6 5 15.5 9.5t21.5 4.5q13 0 22 -5t16 -11q7 -7 13 -15q5 8 13 15q6 6 15.5 11 t22.5 5q11 0 20.5 -4.5t15.5 -9.5q7 -6 13 -13q-26 -2 -35 -21t-9 -49q0 -37 16.5 -59t45.5 -22q18 0 32 5t24 21.5t15.5 48t5.5 84.5q0 34 -4 57.5t-11.5 39.5t-17.5 24.5t-21 12.5q-39 -11 -80 -11l-57 66q55 -9 89.5 -2t54 27t26.5 52.5t7 74.5q0 66 -14 90t-49 24 q-29 0 -45.5 -21.5t-16.5 -59.5q0 -30 9 -49t35 -21q-6 -8 -13 -13q-6 -5 -15.5 -9t-20.5 -4q-13 0 -22.5 4.5t-15.5 10.5q-8 7 -13 16q-6 -9 -13 -16q-7 -6 -16 -10.5t-22 -4.5q-12 0 -21.5 4t-15.5 9q-8 5 -13 13q27 2 35.5 21t8.5 49q0 28 13 53t36 44t55 30t71 11h14 q31 0 60.5 -9t52.5 -29.5t36.5 -53t13.5 -79.5q0 -60 -22.5 -103t-60.5 -70z" />
<glyph unicode="4" horiz-adv-x="470" d="M426 369q-7 -4 -13 -11q-5 -6 -10.5 -16t-8.5 -27h72l-30 -82h-44v-136q0 -31 8.5 -50t35.5 -21q-6 -8 -13 -13t-16 -9t-21 -4q-13 0 -22.5 4.5t-15.5 10.5q-8 7 -13 16q-6 -9 -13 -16q-7 -6 -16 -10.5t-22 -4.5q-12 0 -21 4t-15 9q-7 5 -13 13q26 2 35 21t9 50v136h-275 q35 70 61 139q11 29 21.5 60.5t17.5 63t10.5 61t1.5 54.5q-2 26 -13 41t-23 23q-14 9 -32 12q11 11 26 20q13 8 30.5 14t39.5 6q37 0 58 -21.5t21 -82.5q0 -38 -10.5 -80t-25.5 -83.5t-32.5 -79t-32.5 -65.5h157v315q0 31 -9 49.5t-35 20.5q6 7 13 13q6 5 15 9.5t21 4.5 q13 0 22 -5t16 -11q7 -7 13 -15q5 8 13 15q6 6 15.5 11t22.5 5q12 0 21 -4.5t16 -9.5q7 -6 13 -13q-27 -2 -35.5 -20.5t-8.5 -49.5v-188q2 -23 7 -37t11 -22q7 -10 16 -14z" />
<glyph unicode="5" horiz-adv-x="418" d="M235 480q31 0 63 -9.5t57.5 -34.5t42 -67t16.5 -108q0 -77 -13.5 -127t-37.5 -80t-57 -42t-73 -12h-10q-39 0 -71 11t-55 36.5t-36 66t-13 99.5q0 31 -8.5 50t-35.5 21q5 7 13 13q6 5 15.5 9t21.5 4q13 0 22 -5t16 -11q7 -7 13 -15q5 8 13 15q6 6 15.5 11t22.5 5 q11 0 20.5 -4t15.5 -9q7 -6 13 -13q-26 -2 -35 -21.5t-9 -49.5q0 -83 16.5 -120t45.5 -37q48 0 62.5 49.5t14.5 155.5q0 53 -10 85.5t-25 50t-33.5 23.5t-36.5 6q-23 0 -37.5 -7.5t-22.5 -16.5q-10 -11 -14 -23l-66 30v221q0 31 -8.5 49.5t-34.5 20.5q6 7 13 13q6 5 15 9.5 t21 4.5q13 0 22 -5t16 -11q7 -7 13 -15q8 8 20 15q11 6 27.5 11t41.5 5h27l163 -2q-12 -20 -19 -44q-6 -20 -8.5 -48.5t7.5 -60.5q-11 -1 -22 3q-9 3 -18 11t-15 25q-7 -8 -14.5 -10t-15.5 0q-9 2 -17 6q5 3 10.5 11.5t7.5 18t0 18.5t-12 13q-8 2 -18 2h-21h-8 q-22 0 -40.5 -15t-18.5 -49v-134l22 4q10 2 21.5 3t22.5 1z" />
<glyph unicode="6" horiz-adv-x="422" d="M216 506q27 2 35.5 21t8.5 49q0 50 -11.5 72t-35.5 22q-36 0 -48.5 -39t-12.5 -131v-118q20 19 50.5 36t71.5 17q73 0 108.5 -47t35.5 -138q0 -62 -15 -109t-41 -78.5t-60.5 -47.5t-73.5 -16t-73.5 13t-60 45t-40.5 84.5t-15 132.5v21q-2 23 -7.5 37.5t-11.5 22.5 q-7 10 -16 14q9 4 16 14q6 8 11.5 22t7.5 37v11q0 79 15 132t40.5 84.5t60 44.5t73.5 13q60 0 96 -33t50 -118q2 -15 4 -27.5t6.5 -21.5t12 -14.5t21.5 -6.5q-5 -8 -13 -13q-7 -5 -16.5 -9t-20.5 -4q-13 0 -22.5 4.5t-15.5 10.5q-8 7 -13 16q-6 -9 -13 -16q-7 -6 -16 -10.5 t-22 -4.5q-12 0 -21 4t-16 9q-8 5 -13 13zM237 385q-17 0 -33 -8t-27 -17q-14 -11 -25 -24v-110q0 -91 20 -130.5t56 -39.5q35 0 55.5 39t20.5 129q0 161 -67 161z" />
<glyph unicode="7" horiz-adv-x="401" d="M348 727q11 0 20.5 -4.5t15.5 -9.5q7 -6 13 -13q-26 -2 -33.5 -20.5t-7.5 -49.5l-39 -188q-4 -23 -1 -37t8 -22q5 -10 13 -14q-10 -4 -19 -14q-8 -8 -16.5 -22.5t-14.5 -37.5l-40 -198q-7 -31 -2 -50t31 -21q-7 -8 -16 -13q-8 -5 -18 -9t-21 -4q-13 0 -21.5 4.5 t-13.5 10.5q-6 7 -10 16q-7 -9 -16 -16q-8 -6 -18 -10.5t-23 -4.5q-12 0 -20.5 4t-13.5 9q-6 5 -10 13q27 2 39.5 21t18.5 50l41 198q3 23 0.5 37.5t-7.5 22.5q-5 10 -13 14q9 4 19 14q8 8 16.5 22t14.5 37l36 174q4 17 -1 27.5t-14.5 16.5t-21.5 8t-22 2h-26 q-11 0 -21 -0.5t-14 -1.5q-10 -4 -12.5 -13t-0.5 -18.5t7.5 -18t11.5 -11.5q-9 -4 -18 -6q-8 -2 -15.5 0t-13.5 10q-6 -17 -15.5 -25t-18.5 -11q-11 -4 -21 -3q9 32 7 60.5t-8 48.5q-7 24 -19 44l163 2h41q24 0 41 -5t28 -11q12 -7 20 -15q5 8 13 15q6 6 15.5 11t22.5 5z " />
<glyph unicode="8" horiz-adv-x="358" d="M179 727q39 0 71 -13.5t55 -38.5t36 -60.5t13 -78.5q0 -87 -44 -137q3 -8 8.5 -13.5t10.5 -8.5q6 -4 13 -5q-7 -1 -13 -5q-5 -3 -10.5 -8t-8.5 -13q20 -23 32 -55t12 -77q0 -52 -13 -92t-36 -67.5t-55 -41.5t-71 -14t-71 14t-55 41.5t-36 67.5t-13 92q0 45 12 77t31 55 q-3 8 -8.5 13t-10.5 8q-6 4 -12 5q7 1 13 5q5 3 10.5 8.5t8.5 13.5q-44 50 -44 137q0 43 13 78.5t36 60.5t55 38.5t71 13.5zM179 56q36 0 48.5 37t12.5 121q0 71 -16 100.5t-45 29.5t-45 -29.5t-16 -100.5q0 -84 12.5 -121t48.5 -37zM179 401q36 0 48.5 34t12.5 101 q0 66 -12.5 100t-48.5 34t-48.5 -34t-12.5 -100q0 -67 12.5 -101t48.5 -34z" />
<glyph unicode="9" horiz-adv-x="422" d="M383 431q2 -23 7.5 -37t11.5 -22q7 -10 16 -14q-9 -4 -16 -14q-6 -8 -11.5 -22.5t-7.5 -37.5v-10q0 -80 -15 -132.5t-41 -84.5t-60 -45t-73 -13q-60 0 -96 33t-50 118q-2 15 -4 27.5t-6.5 21.5t-12.5 14.5t-21 6.5q5 7 13 13q7 5 16 9.5t21 4.5q13 0 22 -5t16 -11 q7 -7 13 -15q5 8 13 15q6 6 15.5 11t22.5 5q11 0 20.5 -4.5t15.5 -9.5q7 -6 13 -13q-26 -2 -34.5 -21t-8.5 -49q0 -50 11 -72t36 -22q35 0 48 39.5t13 130.5v118q-20 -19 -50.5 -35.5t-71.5 -16.5q-73 0 -108.5 46.5t-35.5 137.5q0 62 15 109t41 78.5t60.5 47.5t73.5 16 t73 -13t60 -44.5t41 -84.5t15 -132v-22zM270 500q0 92 -20 131t-56 39t-56 -39t-20 -129q0 -161 67 -161q17 0 32.5 7.5t27.5 16.5q13 11 25 25v110z" />
<glyph unicode=":" horiz-adv-x="136" d="M68 128q26 0 45 -19t19 -45q0 -27 -19 -46t-45 -19q-27 0 -45.5 19t-18.5 46q0 26 18.5 45t45.5 19zM68 389q-27 0 -45.5 19t-18.5 45q0 27 18.5 46t45.5 19q26 0 45 -19t19 -46q0 -26 -19 -45t-45 -19z" />
<glyph unicode=";" horiz-adv-x="136" d="M68 389q-27 0 -45.5 19t-18.5 45q0 27 18.5 46t45.5 19q26 0 45 -19t19 -46q0 -26 -19 -45t-45 -19zM68 128q26 0 45 -19t19 -45q0 -51 -16 -79.5t-35 -43.5q-22 -18 -50 -24q16 18 22 40t5 43q-23 4 -38.5 21.5t-15.5 42.5q0 26 18.5 45t45.5 19z" />
<glyph unicode="&#x3c;" horiz-adv-x="278" d="M4 356v73l270 199v-87l-217 -148l217 -149v-87l-270 199v0z" />
<glyph unicode="=" horiz-adv-x="276" d="M4 239v68h268v-68h-268zM4 422h268v-67h-268v67z" />
<glyph unicode="&#x3e;" horiz-adv-x="278" d="M4 541v87l270 -199v-73l-270 -199v87l217 149l-217 148v0z" />
<glyph unicode="?" horiz-adv-x="401" d="M130 128q26 0 45 -19t19 -45q0 -27 -19 -46t-45 -19q-27 0 -46 19t-19 46q0 26 19 45t46 19zM223 727q39 0 71 -8t55 -28.5t35.5 -55t12.5 -87.5q0 -38 -17 -71.5t-42.5 -62.5t-55 -54t-55 -46.5t-42.5 -40t-17 -34.5q0 -11 7 -19.5t20 -12.5q-4 -3 -9 -6q-10 -5 -24 -5 q-8 0 -14 2t-10 4q-4 3 -8 7q-4 -4 -8 -7q-5 -2 -11 -4t-14 -2q-13 0 -23 5q-5 3 -9 6q17 2 22.5 10t4.5 22q0 35 14 62.5t35.5 51t46.5 46t46.5 49t35.5 59t14 75.5q0 51 -16 69.5t-45 18.5q-36 0 -48.5 -18t-12.5 -40q0 -30 8.5 -49.5t35.5 -21.5q-5 -8 -13 -13 q-7 -5 -16.5 -9t-20.5 -4q-13 0 -22.5 4.5t-15.5 10.5q-8 7 -13 16q-6 -9 -13 -16q-7 -6 -16 -10.5t-22 -4.5q-12 0 -21 4t-16 9q-8 5 -13 13q27 2 35.5 21t8.5 50q0 23 13 44t36 36.5t55 25t71 9.5z" />
<glyph unicode="@" horiz-adv-x="671" d="M338 727q80 0 138.5 -24.5t97.5 -64.5t61 -91.5t28.5 -105t-1 -105t-26.5 -91.5t-47.5 -64.5t-65.5 -24.5q-48 0 -76.5 16t-42.5 48q-35 -27 -84 -27q-61 0 -101 42.5t-46 123.5q-4 11 -8 17t-8 10t-9 7q5 2 10 7q4 5 8.5 12.5t7.5 19.5q1 5 1.5 10t1.5 10q0 1 0.5 1.5 t0.5 1.5v-1q14 64 51 97t91 33q48 0 83 -27q13 11 28 18.5t30 7.5q12 0 21 -3.5t14 -8.5q6 -5 10 -11q-23 -2 -30.5 -18t-7.5 -42v-186q0 -58 11 -93t30 -35q23 0 42 36.5t27.5 91.5t3 118.5t-32.5 118.5t-78.5 91.5t-134.5 36.5q-57 0 -105 -24t-83 -66.5t-55 -100 t-20 -124.5q0 -68 20.5 -119.5t54.5 -86.5t78.5 -53t93.5 -18q31 0 54 7t39 15q18 10 31 23q0 -38 -14 -67q-12 -25 -41 -45.5t-84 -20.5q-45 0 -98 19.5t-98 61t-75 105t-30 152.5q0 103 31.5 177t80 121t107.5 69.5t115 22.5zM320 241q29 0 39.5 24.5t12.5 67.5 q-2 19 -6.5 30.5t-9.5 18.5q-6 8 -13 11q6 4 12 11q5 6 9.5 17t6.5 28q-2 36 -13 61.5t-38 25.5q-31 0 -41.5 -28.5t-10.5 -78.5v-81q0 -21 2.5 -40.5t8.5 -34.5t16 -23.5t25 -8.5z" />
<glyph unicode="A" horiz-adv-x="472" d="M416 97q4 -31 15 -50t37 -21q-4 -8 -11 -13q-6 -5 -15 -9t-20 -4q-13 0 -23 4.5t-17 10.5q-9 7 -15 16q-5 -9 -11 -16q-6 -6 -14.5 -10.5t-21.5 -4.5q-12 0 -21.5 4t-16.5 9q-8 5 -15 13q26 2 33 23t4 48l-13 114l-108 17l-15 -131q-3 -27 4 -48t33 -23q-7 -8 -15 -13 q-7 -5 -17 -9t-21 -4q-13 0 -22 4.5t-14 10.5q-7 7 -11 16q-7 -9 -15 -16q-8 -6 -17.5 -10.5t-22.5 -4.5q-12 0 -20.5 4t-14.5 9q-7 5 -11 13q26 2 37 21t15 50l24 198q2 23 -2 37.5t-9 22.5q-6 10 -14 14q8 4 17 14q7 8 14.5 22t12.5 37l23 188q4 31 0 51.5t-22 23.5 q3 6 9 11q5 4 13.5 7.5t22.5 3.5q17 0 29 -11.5t18 -20.5q5 10 12.5 16t14.5 10q8 4 17 6q8 -2 16 -6q7 -4 14.5 -10t13.5 -16q5 9 17 20.5t30 11.5q14 0 22.5 -3.5t13.5 -7.5q6 -5 9 -11q-18 -3 -22 -23.5t0 -51.5l23 -188q4 -23 11 -37t15 -22q9 -10 18 -14q-8 -4 -14 -14 q-5 -8 -9.5 -22.5t-2.5 -37.5zM281 297l-32 276q-2 18 -4.5 27t-4.5 14q-3 4 -4 5q-2 -1 -4 -5q-2 -5 -4.5 -14t-4.5 -27l-30 -261z" />
<glyph unicode="B" horiz-adv-x="416" d="M311 398q21 -8 39 -21.5t32 -35.5t22 -53t8 -73q0 -66 -17 -107.5t-44 -65.5t-60 -33t-64 -9h-33q-25 0 -41.5 4.5t-27.5 10.5q-12 6 -20 15v1q-6 -9 -13 -16q-7 -6 -16 -10.5t-22 -4.5q-12 0 -21 4t-16 9q-8 5 -13 13q27 2 35.5 21t8.5 50v198q-2 23 -7 37.5t-11 22.5 q-7 10 -16 14q9 4 16 14q6 8 11 22t7 37v188q0 31 -8.5 49.5t-35.5 20.5q5 7 13 13q7 5 16 9.5t21 4.5q13 0 22 -5t16 -11q7 -7 13 -15q8 8 20 15q11 6 27.5 11t41.5 5h40q31 0 60.5 -9t52.5 -29.5t36.5 -53t13.5 -79.5q0 -58 -23.5 -96t-62.5 -62zM220 670q-21 0 -39.5 -15 t-18.5 -49v-206q24 5 46.5 15.5t39 28.5t26.5 45.5t10 66.5q0 66 -14.5 90t-49.5 24zM220 56q18 0 32 5t24.5 21.5t16 48t5.5 84.5q0 48 -8.5 76t-21.5 42t-30 18t-33 4q-11 -2 -21.5 -4.5t-21.5 -4.5q1 -36 17.5 -53.5t45.5 -10.5q-4 -16 -12 -27q-7 -10 -19 -17t-32 -2 v-100v-15q0 -35 18.5 -50t39.5 -15z" />
<glyph unicode="C" horiz-adv-x="436" d="M231 442q26 2 34.5 21t8.5 49q0 47 -3 77.5t-9.5 48.5t-18.5 25t-30 7q-36 0 -48.5 -39t-12.5 -131v-58q2 -23 7 -37t11 -22q7 -10 16 -14q-9 -4 -16 -14q-6 -8 -11 -22.5t-7 -37.5v-69q0 -91 12.5 -130.5t48.5 -39.5q18 0 30 7t18.5 25t9.5 48.5t3 77.5q0 30 -8.5 49 t-34.5 21q6 7 13 13q6 5 15 9.5t21 4.5q13 0 22 -5t16 -11q7 -7 13 -15q5 8 13 15q6 6 15.5 11t22.5 5q11 0 20.5 -4.5t16.5 -9.5q8 -6 13 -13q-27 -2 -35.5 -20.5t-8.5 -49.5q0 -68 -13 -110t-36 -65t-55 -31.5t-71 -8.5t-71 13t-55 45t-35.5 84.5t-12.5 132.5v21 q-2 23 -7.5 37.5t-11.5 22.5q-7 10 -16 14q9 4 16 14q6 8 11.5 22t7.5 37v11q0 79 12.5 132t35.5 84.5t55 44.5t71 13t71 -8t55 -31.5t36 -65.5t13 -110q0 -31 8.5 -49.5t35.5 -20.5q-5 -8 -13 -14q-7 -5 -16.5 -9t-20.5 -4q-13 0 -22.5 4.5t-15.5 10.5q-8 7 -13 16 q-6 -9 -13 -16q-7 -6 -16 -10.5t-22 -4.5q-12 0 -21 4t-15 9q-7 6 -13 14z" />
<glyph unicode="D" horiz-adv-x="436" d="M399 427q2 -18 8 -29.5t11 -17.5q6 -8 14 -11q-7 -4 -13 -11q-5 -6 -10.5 -16t-8.5 -27q-8 -163 -62 -237.5t-146 -74.5q-25 0 -41.5 4.5t-27.5 10.5q-12 7 -19 16q-6 -9 -13 -16q-7 -6 -16 -10.5t-22 -4.5q-12 0 -21 4t-15 9q-7 5 -13 13q26 2 34.5 20.5t8.5 49.5v197 q-2 23 -7 37t-11 22q-7 10 -16 14q9 4 16 14q6 8 11 22t7 37v186q0 31 -8.5 49.5t-34.5 20.5q6 7 13 13q6 5 15 9.5t21 4.5q13 0 22 -5t16 -11q7 -7 13 -15q7 8 19 15q11 5 27.5 10t41.5 5q91 0 144.5 -71t62.5 -226zM199 59q32 0 55 61.5t27 183.5q-2 20 -7.5 32t-11.5 20 q-7 9 -15 13q7 4 14 12q5 7 11 18.5t8 31.5q-4 118 -26.5 177.5t-54.5 59.5q-17 0 -28 -15t-11 -49v-162q2 -23 7 -37t11 -22q7 -10 16 -14q-9 -4 -16 -14q-6 -8 -11 -22t-7 -37v-173q0 -34 11 -49t28 -15z" />
<glyph unicode="E" horiz-adv-x="386" d="M382 727q-12 -20 -19 -45q-6 -21 -8 -49.5t7 -60.5q-11 -1 -21 3q-9 3 -18 11t-15 25q-7 -8 -14.5 -10t-15.5 0q-9 2 -17 6q5 3 10.5 11.5t7.5 18t0 18.5t-12 13q-8 2 -18 2h-21h-8q-22 0 -40.5 -15t-18.5 -49v-237q13 19 29.5 37.5t34.5 32t37 20.5t37 3q21 -5 28.5 -21 t9.5 -34q2 -21 -3 -46q-4 4 -11 8q-6 3 -16 5.5t-24 2.5t-35 -7t-40.5 -21.5t-33 -37.5t-13.5 -55v-135q0 -35 18.5 -50t40.5 -15h8h22q19 0 27 13.5t7 30t-7.5 31.5t-15.5 17q9 6 18 9q8 2 16 0t13 -13q-3 23 5 35.5t19 19.5q12 8 30 10q-9 -29 -7 -65t8 -68q7 -38 19 -76 h-162h-27q-25 0 -41.5 4.5t-27.5 10.5q-12 6 -20 15v1q-6 -9 -13 -16q-7 -6 -16 -10.5t-22 -4.5q-12 0 -21 4t-15 9q-7 5 -13 13q26 2 34.5 21t8.5 50v198q-2 23 -7 37.5t-11 22.5q-7 10 -16 14q9 4 16 14q6 8 11 22t7 37v188q0 31 -8.5 49.5t-34.5 20.5q6 7 13 13 q6 5 15 9.5t21 4.5q13 0 22 -5t16 -11q7 -7 13 -15q8 8 20 15q11 6 27.5 11t41.5 5h27h162z" />
<glyph unicode="F" horiz-adv-x="386" d="M382 727q-12 -20 -19 -45q-6 -21 -8 -49.5t7 -60.5q-11 -1 -21 3q-9 3 -18 11t-15 25q-7 -8 -14.5 -10t-15.5 0q-9 2 -17 6q5 3 10.5 11.5t7.5 18t0 18.5t-12 13q-8 2 -18 2h-21h-8q-22 0 -40.5 -15t-18.5 -49v-237q13 19 29.5 37.5t34.5 32t37 20.5t37 3q21 -5 28.5 -21 t9.5 -34q2 -21 -3 -46q-4 4 -11 8q-6 3 -16 5.5t-24 2.5t-35 -7t-40.5 -21.5t-33 -37.5t-13.5 -55v-160q0 -31 8.5 -49.5t35.5 -20.5q-5 -8 -13 -13q-7 -5 -16.5 -9t-20.5 -4q-13 0 -22.5 4.5t-15.5 10.5q-8 7 -13 16q-6 -9 -13 -16q-7 -6 -16 -10.5t-22 -4.5q-12 0 -21 4 t-15 9q-7 5 -13 13q26 2 34.5 21t8.5 50v198q-2 23 -7 37.5t-11 22.5q-7 10 -16 14q9 4 16 14q6 8 11 22t7 37v188q0 31 -8.5 49.5t-34.5 20.5q6 7 13 13q6 5 15 9.5t21 4.5q13 0 22 -5t16 -11q7 -7 13 -15q8 8 20 15q11 6 27.5 11t41.5 5h27h162v0z" />
<glyph unicode="G" horiz-adv-x="436" d="M231 470q26 2 34.5 21.5t8.5 49.5q0 37 -3 62t-9.5 40t-18.5 21t-30 6q-36 0 -48.5 -39t-12.5 -131v-58q2 -23 7 -37t11 -22q7 -10 16 -14q-9 -4 -16 -14q-6 -8 -11 -22.5t-7 -37.5v-69q0 -91 12.5 -130.5t48.5 -39.5q18 0 30 6.5t18.5 26t9.5 56.5t3 98q0 29 -9 44.5 t-21.5 20t-26 -0.5t-23.5 -17q-2 7 -3 15q-1 7 -0.5 15t4.5 16q9 17 26 23.5t30 6.5q20 0 35 -6t25 -14q11 -9 20 -19q5 10 13 19q6 8 15.5 14t22.5 6q11 0 20.5 -4.5t16.5 -9.5q8 -6 13 -13q-27 -2 -35.5 -20.5t-8.5 -49.5v-26v-118q0 -45 6.5 -71t37.5 -34q-4 -6 -11 -10 q-6 -4 -15.5 -7t-23.5 -3q-23 0 -38 12.5t-23 31.5q-44 -45 -108 -45q-39 0 -71 13t-55 45t-35.5 84.5t-12.5 132.5v21q-2 23 -7.5 37.5t-11.5 22.5q-7 10 -16 14q9 4 16 14q6 8 11.5 22t7.5 37v11q0 79 12.5 132t35.5 84.5t55 44.5t71 13t71 -8.5t55 -29.5t36 -57t13 -91 q0 -31 8.5 -50t35.5 -21q-5 -8 -13 -13q-7 -5 -16.5 -9t-20.5 -4q-13 0 -22.5 4.5t-15.5 10.5q-8 7 -13 16q-6 -9 -13 -16q-7 -6 -16 -10.5t-22 -4.5q-12 0 -21 4t-15 9q-7 5 -13 13z" />
<glyph unicode="H" horiz-adv-x="445" d="M398 442q1 -23 6.5 -37t11.5 -22q7 -10 16 -14q-9 -4 -16 -14q-6 -8 -11.5 -22.5t-6.5 -37.5v-198q0 -31 8.5 -50t34.5 -21q-6 -8 -13 -13q-6 -5 -15.5 -9t-20.5 -4q-13 0 -22.5 4.5t-15.5 10.5q-8 7 -13 16q-6 -9 -13 -16q-7 -6 -16 -10.5t-22 -4.5q-12 0 -21 4t-16 9 q-8 5 -13 13q27 2 35.5 21t8.5 50v212l-122 20v-232q0 -31 8.5 -50t35.5 -21q-5 -8 -13 -13q-7 -5 -16.5 -9t-20.5 -4q-13 0 -22.5 4.5t-15.5 10.5q-8 7 -13 16q-6 -9 -13 -16q-7 -6 -16 -10.5t-22 -4.5q-12 0 -21 4t-16 9q-8 5 -13 13q27 2 35.5 21t8.5 50v198 q-2 23 -7 37.5t-11 22.5q-7 10 -16 14q9 4 16 14q6 8 11 22t7 37v188q0 31 -8.5 49.5t-35.5 20.5q5 7 13 13q7 5 16 9.5t21 4.5q13 0 22 -5t16 -11q7 -7 13 -15q5 8 13 15q6 6 15.5 11t22.5 5q11 0 20.5 -4.5t16.5 -9.5q8 -6 13 -13q-27 -2 -35.5 -20.5t-8.5 -49.5v-216 l122 -20v236q0 31 -8.5 49.5t-35.5 20.5q5 7 13 13q7 5 16 9.5t21 4.5q13 0 22 -5t16 -11q7 -7 13 -15q5 8 13 15q6 6 15.5 11t22.5 5q11 0 20.5 -4.5t15.5 -9.5q7 -6 13 -13q-26 -2 -34.5 -20.5t-8.5 -49.5v-188z" />
<glyph unicode="I" horiz-adv-x="210" d="M162 442q1 -23 6.5 -37t11.5 -22q7 -10 16 -14q-9 -4 -16 -14q-6 -8 -11.5 -22.5t-6.5 -37.5v-198q0 -31 8.5 -50t35.5 -21q-5 -8 -13 -13q-7 -5 -16.5 -9t-20.5 -4q-13 0 -22.5 4.5t-15.5 10.5q-8 7 -13 16q-6 -9 -13 -16q-7 -6 -16 -10.5t-22 -4.5q-12 0 -21 4t-16 9 q-8 5 -13 13q27 2 35.5 21t8.5 50v198q-2 23 -7 37.5t-11 22.5q-7 10 -16 14q9 4 16 14q6 8 11 22t7 37v188q0 31 -8.5 49.5t-35.5 20.5q5 7 13 13q7 5 16 9.5t21 4.5q13 0 22 -5t16 -11q7 -7 13 -15q5 8 13 15q6 6 15.5 11t22.5 5q11 0 20.5 -4.5t16.5 -9.5q8 -6 13 -13 q-27 -2 -35.5 -20.5t-8.5 -49.5v-188z" />
<glyph unicode="J" horiz-adv-x="445" d="M398 442q1 -23 6.5 -37t11.5 -22q7 -10 16 -14q-9 -4 -16 -14q-6 -8 -11.5 -22.5t-6.5 -37.5v-26q0 -80 -13 -132.5t-36 -84.5t-55 -45t-71 -13t-71 8t-55 31.5t-36 65.5t-13 110q0 31 -8.5 49.5t-35.5 20.5q5 7 13 13q7 5 16 9.5t21 4.5q13 0 22 -5t16 -11q7 -7 13 -15 q5 8 13 15q6 6 15.5 11t22.5 5q11 0 20.5 -4.5t16.5 -9.5q8 -6 13 -13q-27 -2 -35.5 -21t-8.5 -49q0 -47 3 -77.5t9.5 -48.5t18.5 -25t30 -7q36 0 48.5 39t12.5 131v74q-2 23 -7 37.5t-11 22.5q-7 10 -16 14q9 4 16 14q6 8 11 22t7 37v188q0 31 -8.5 49.5t-35.5 20.5 q5 7 13 13q7 5 16 9.5t21 4.5q13 0 22 -5t16 -11q7 -7 13 -15q5 8 13 15q6 6 15.5 11t22.5 5q11 0 20.5 -4.5t15.5 -9.5q7 -6 13 -13q-26 -2 -34.5 -20.5t-8.5 -49.5v-188z" />
<glyph unicode="K" horiz-adv-x="456" d="M379 97q13 -31 29 -50t44 -21q-4 -8 -10 -13q-5 -5 -13 -9t-20 -4q-16 0 -28.5 4.5t-20.5 10.5q-11 7 -18 16q-6 -9 -13 -16q-7 -6 -16 -10.5t-22 -4.5q-12 0 -21 4t-16 9q-8 5 -14 13q26 2 26.5 21t-12.5 50l-86 206h-7v-206q0 -31 8.5 -50t35.5 -21q-6 -8 -13 -13 t-16 -9t-21 -4q-13 0 -22.5 4.5t-15.5 10.5q-8 7 -13 16q-6 -9 -13 -16q-7 -6 -16 -10.5t-22 -4.5q-12 0 -21 4t-15 9q-7 5 -13 13q26 2 35 21t9 50v198q-2 23 -7.5 37.5t-11.5 22.5q-7 10 -16 14q9 4 16 14q6 8 11.5 22t7.5 37v188q0 31 -9 49.5t-35 20.5q6 7 13 13 q6 5 15 9.5t21 4.5q13 0 22 -5t16 -11q7 -7 13 -15q5 8 13 15q6 6 15.5 11t22.5 5q12 0 21 -4.5t16 -9.5q7 -6 13 -13q-27 -2 -35.5 -20.5t-8.5 -49.5v-206h7l86 206q13 31 12.5 49.5t-26.5 20.5q6 7 14 13q7 5 16 9.5t21 4.5q13 0 22 -5t16 -11q7 -7 13 -15q7 8 18 15 q8 6 20.5 11t28.5 5q12 0 20 -4.5t13 -9.5q5 -6 9 -13q-28 -2 -44 -20.5t-29 -49.5l-116 -265l117 -268v0z" />
<glyph unicode="L" horiz-adv-x="386" d="M48 294q-2 23 -7.5 37t-11.5 22q-7 10 -15 14q8 4 15 14q6 8 11.5 22t7.5 37v-146zM382 250q-17 -42 -20.5 -86t0.5 -80q4 -42 15 -83h-158h-27q-24 0 -40.5 4.5t-27.5 10.5q-12 6 -20 15v1q-6 -9 -13 -16q-7 -6 -16 -10.5t-22 -4.5q-11 0 -20.5 4t-15.5 9q-8 5 -13 13 q27 2 35.5 20.5t8.5 49.5v529q0 31 -8.5 49.5t-35.5 20.5q5 7 13 13q6 5 15.5 9.5t20.5 4.5q13 0 22 -5t16 -11q7 -7 13 -15q5 8 13 15q6 6 15.5 11t22.5 5q11 0 20.5 -4.5t15.5 -9.5q7 -6 13 -13q-26 -2 -35 -20.5t-9 -49.5v-186q2 -23 7.5 -37t11.5 -22q7 -10 16 -14 q-9 -4 -16 -14q-6 -8 -11.5 -22t-7.5 -37v-173q0 -34 18.5 -49t40.5 -15h27q19 0 25 17t4 37.5t-10 38.5t-17 21q10 8 20 11q8 2 17.5 -1.5t17.5 -19.5q-4 31 8 49t28 27q18 11 43 13z" />
<glyph unicode="M" horiz-adv-x="634" d="M586 442q2 -23 7.5 -37t11.5 -22q7 -10 16 -14q-9 -4 -16 -14q-6 -8 -11.5 -22.5t-7.5 -37.5v-198q0 -31 9 -50t35 -21q-6 -8 -13 -13q-6 -5 -15.5 -9t-20.5 -4q-13 0 -22.5 4.5t-16.5 10.5q-8 7 -13 16q-6 -9 -13 -16q-7 -6 -16 -10.5t-22 -4.5q-12 0 -21 4t-15 9 q-7 5 -13 13q26 2 35 21t9 50v337l-99 -249h1q0 -31 8.5 -49.5t34.5 -20.5q-6 -8 -13 -14q-6 -5 -15.5 -9t-20.5 -4q-13 0 -22.5 4.5t-15.5 10.5q-8 7 -13 16v1v-1q-6 -9 -13 -16q-7 -6 -16 -10.5t-22 -4.5q-12 0 -21 4t-16 9q-8 6 -13 14q26 2 34.5 19.5t9.5 46.5l-100 253 v-337q0 -31 9 -50t35 -21q-6 -8 -13 -13q-6 -5 -15.5 -9t-20.5 -4q-13 0 -22.5 4.5t-16.5 10.5q-8 7 -13 16q-6 -9 -13 -16q-7 -6 -16 -10.5t-22 -4.5q-12 0 -21 4t-15 9q-7 5 -13 13q26 2 35 21t9 50v198q-2 23 -7.5 37.5t-11.5 22.5q-7 10 -16 14q9 4 16 14q6 8 11.5 22 t7.5 37v188q0 31 -9 49.5t-35 20.5q6 7 13 13q6 5 15 9.5t21 4.5q13 0 22 -5t16 -11q7 -7 13 -15q5 8 13 15q7 6 16 11t23 5q11 0 20.5 -4.5t15.5 -9.5q7 -6 13 -13q-21 -2 -30 -13l142 -371l142 371q-10 12 -30 13q6 7 13 13q6 5 15 9.5t21 4.5q13 0 22 -5t16 -11 q7 -7 13 -15q5 8 13 15q7 6 16.5 11t22.5 5q11 0 20.5 -4.5t15.5 -9.5q7 -6 13 -13q-26 -2 -35 -20.5t-9 -49.5v-188z" />
<glyph unicode="N" horiz-adv-x="458" d="M410 442q2 -23 7.5 -37t11.5 -22q7 -10 16 -14q-9 -4 -16 -14q-6 -8 -11.5 -22.5t-7.5 -37.5v-198q0 -31 9 -50t35 -21q-6 -8 -13 -13q-6 -5 -15.5 -9t-20.5 -4q-13 0 -22.5 4.5t-15.5 10.5q-8 7 -13 16q-5 -9 -13 -16q-7 -6 -16.5 -10.5t-22.5 -4.5q-12 0 -21 4t-15 9 q-7 5 -13 13q26 2 35 21t9 50v145l-136 218v-363q0 -31 8.5 -50t35.5 -21q-6 -8 -13 -13t-16 -9t-21 -4q-13 0 -22.5 4.5t-15.5 10.5q-8 7 -13 16q-6 -9 -13 -16q-7 -6 -16 -10.5t-22 -4.5q-12 0 -21 4t-15 9q-7 5 -13 13q26 2 35 21t9 50v198q-2 23 -7.5 37.5t-11.5 22.5 q-7 10 -16 14q9 4 16 14q6 8 11.5 22t7.5 37v188q0 31 -9 49.5t-35 20.5q6 7 13 13q6 5 15 9.5t21 4.5q13 0 22 -5t16 -11q7 -7 13 -15q5 8 13 15q6 6 15.5 11t22.5 5q12 0 21 -4.5t16 -9.5q7 -6 13 -13q-23 -2 -32 -15t-11 -36l134 -215q0 2 0.5 4t0.5 4v188 q0 31 -8.5 49.5t-35.5 20.5q6 7 13 13q6 5 15 9.5t21 4.5q13 0 22.5 -5t16.5 -11q8 -7 13 -15q5 8 13 15q6 6 15.5 11t22.5 5q11 0 20.5 -4.5t15.5 -9.5q7 -6 13 -13q-26 -2 -35 -20.5t-9 -49.5v-188z" />
<glyph unicode="O" horiz-adv-x="426" d="M388 442q1 -23 6.5 -37t11.5 -22q7 -10 16 -14q-9 -4 -16 -14q-6 -8 -11.5 -22.5t-6.5 -37.5v-21q0 -80 -13 -132.5t-36 -84.5t-55 -45t-71 -13t-71 13t-55 45t-36 84.5t-13 132.5v21q-2 23 -7 37.5t-11 22.5q-7 10 -16 14q9 4 16 14q6 8 11 22t7 37v11q0 79 13 132 t36 84.5t55 44.5t71 13t71 -13t55 -44.5t36 -84.5t13 -132v-11zM213 56q36 0 48.5 39.5t12.5 130.5v69q-2 23 -7 37.5t-11 22.5q-7 10 -16 14q9 4 16 14q6 8 11 22t7 37v58q0 92 -12.5 131t-48.5 39q-30 0 -43.5 -26.5t-16.5 -86.5q0 -39 16.5 -58t46.5 -12q-4 -17 -12 -28 q-7 -10 -19.5 -16.5t-32.5 -1.5q2 -23 7 -37t11 -22q7 -10 16 -13q-9 -4 -16 -14q-6 -8 -11.5 -22.5t-6.5 -37.5v-69q0 -91 12.5 -130.5t48.5 -39.5z" />
<glyph unicode="P" horiz-adv-x="401" d="M247 727q31 0 58.5 -15.5t48 -44t32 -67.5t11.5 -86q0 -53 -18 -96t-50 -74.5t-75 -50t-92 -21.5v-176q0 -31 8.5 -49.5t35.5 -20.5q-5 -8 -13 -13q-7 -5 -16.5 -9t-20.5 -4q-13 0 -22.5 4.5t-15.5 10.5q-8 7 -13 16q-6 -9 -13 -16q-7 -6 -16 -10.5t-22 -4.5q-12 0 -21 4 t-16 9q-8 5 -13 13q27 2 35.5 21t8.5 50v198q-2 23 -7 37.5t-11 22.5q-7 10 -16 14q9 4 16 14q6 8 11 22t7 37v188q0 31 -8.5 49.5t-35.5 20.5q5 7 13 13q7 5 16 9.5t21 4.5q13 0 22 -5t16 -11q7 -7 13 -15q8 8 20 15q11 6 27.5 11t41.5 5h53zM162 327q62 5 92 55.5 t30 131.5q0 33 -3 61.5t-10.5 49.5t-19.5 33t-30 12q-22 0 -40.5 -15t-18.5 -49v-101q20 4 32 -2.5t19 -16.5q8 -11 12 -27q-30 7 -46.5 -12t-16.5 -58v-62z" />
<glyph unicode="Q" horiz-adv-x="425" d="M298 20q17 -14 33 -28.5t34.5 -24.5t40.5 -12t50 9q-2 -26 -12 -45q-8 -17 -25.5 -30.5t-48.5 -13.5q-21 0 -36 9t-27 23t-22 30t-20.5 30t-23 23t-28.5 9q-39 0 -71 13t-55 45t-36 84.5t-13 132.5v21q-2 23 -7 37.5t-11 22.5q-7 10 -16 14q9 4 16 14q6 8 11 22t7 37v11 q0 79 13 132t36 84.5t55 44.5t71 13t71 -13t55 -44.5t35.5 -84.5t12.5 -132v-11q2 -23 7.5 -37t11.5 -22q7 -10 16 -14q-9 -4 -16 -14q-6 -8 -11.5 -22.5t-7.5 -37.5v-21q0 -110 -24 -170t-65 -84zM152 226q0 -91 12.5 -130.5t48.5 -39.5t48.5 39.5t12.5 130.5v69 q-2 23 -7.5 37.5t-11.5 22.5q-7 10 -15 14q8 4 15 14q6 8 11.5 22t7.5 37v58q0 92 -12.5 131t-48.5 39q-30 0 -43.5 -26.5t-16.5 -86.5q0 -39 16.5 -58t46.5 -12q-4 -17 -12 -28q-7 -10 -19.5 -16.5t-32.5 -1.5q1 -23 6.5 -37t11.5 -22q7 -10 16 -13q-9 -4 -16 -14 q-6 -8 -11.5 -22.5t-6.5 -37.5v-69z" />
<glyph unicode="R" horiz-adv-x="458" d="M381 97q13 -31 29 -50t44 -21q-4 -8 -10 -13q-5 -5 -13 -9t-20 -4q-16 0 -28.5 4.5t-20.5 10.5q-11 7 -18 16q-6 -9 -13 -16q-7 -6 -16 -10.5t-22 -4.5q-12 0 -21 4t-16 9q-8 5 -14 13q26 2 26.5 21t-12.5 50l-74 177q-5 -1 -10.5 -1t-10.5 -1v-176q0 -31 9 -49.5 t35 -20.5q-6 -8 -13 -13t-16 -9t-21 -4q-13 0 -22.5 4.5t-15.5 10.5q-8 7 -13 16q-6 -9 -13 -16q-7 -6 -16 -10.5t-22 -4.5q-12 0 -21 4t-15 9q-7 5 -13 13q26 2 35 21t9 50v198q-2 23 -7.5 37.5t-11.5 22.5q-7 10 -16 14q9 4 16 14q6 8 11.5 22t7.5 37v188q0 31 -9 49.5 t-35 20.5q6 7 13 13q6 5 15 9.5t21 4.5q13 0 22 -5t16 -11q7 -7 13 -15q8 8 20 15q11 6 27.5 11t41.5 5h53q31 0 59 -15.5t48 -44t32 -67.5t12 -86q0 -67 -29 -118t-77 -82zM161 341q122 9 122 173q0 33 -5.5 61.5t-15 49.5t-23.5 33t-32 12q-22 0 -34 -15t-12 -49v-101 q20 4 32 -2.5t19 -16.5q8 -11 12 -27q-28 6 -44 -9t-19 -47v-62z" />
<glyph unicode="S" horiz-adv-x="445" d="M398 555q0 -31 8.5 -49.5t34.5 -20.5q-6 -8 -13 -14q-6 -5 -15.5 -9t-20.5 -4q-13 0 -22.5 4.5t-15.5 10.5q-8 7 -13 16q-6 -9 -13 -16q-7 -6 -16 -10.5t-22 -4.5q-12 0 -21 4t-16 9q-8 6 -13 14q27 2 35.5 21t8.5 49q0 34 -3 56.5t-9.5 35.5t-18.5 18t-30 5 q-29 0 -45 -18.5t-16 -69.5q0 -46 18.5 -80.5t46.5 -64.5q14 -11 25.5 -14.5t19.5 -4.5q10 -1 17 2q-2 -6 -2 -15q0 -8 3 -18.5t11 -23.5q19 -19 36.5 -40t31 -45t21.5 -52t8 -62q0 -46 -13 -77t-36 -50.5t-55 -28t-71 -8.5t-71 7.5t-55 27t-36 53t-13 84.5q0 31 -8.5 49.5 t-35.5 20.5q5 7 13 13q7 5 16 9.5t21 4.5q13 0 22 -5t16 -11q7 -7 13 -15q5 8 13 15q6 6 15.5 11t22.5 5q11 0 20.5 -4.5t16.5 -9.5q8 -6 13 -13q-27 -2 -35.5 -21t-8.5 -49q0 -35 3 -57t9.5 -35.5t18.5 -18.5t30 -5q29 0 45 18.5t16 70.5q0 49 -15.5 85t-40.5 65 q-13 8 -22.5 10t-16.5 3q-8 0 -15 -1q2 6 2 14q0 7 -2.5 16.5t-9.5 22.5q-22 20 -42.5 40t-37 42t-26.5 48t-10 58q0 53 13 87.5t36 55t55 28.5t71 8t71 -8t55 -27.5t36 -52.5t13 -84z" />
<glyph unicode="T" horiz-adv-x="480" d="M476 727q-12 -39 -19 -77q-6 -32 -8.5 -68.5t7.5 -64.5q-17 2 -30 10q-11 7 -19.5 19.5t-5.5 35.5q-5 -11 -13 -13t-16 0q-9 3 -18 9q9 3 16 17.5t7.5 31t-7 30t-27.5 13.5q-24 0 -35 -15t-11 -49v-15v-149q1 -23 6.5 -37t11.5 -22q7 -10 16 -14q-9 -4 -16 -14 q-6 -8 -11.5 -22.5t-6.5 -37.5v-198q0 -31 8.5 -50t35.5 -21q-5 -8 -13 -13q-7 -5 -16.5 -9t-20.5 -4q-13 0 -22.5 4.5t-15.5 10.5q-8 7 -13 16q-6 -9 -13 -16q-7 -6 -16 -10.5t-22 -4.5q-12 0 -21 4t-16 9q-8 5 -13 13q27 2 35.5 21t8.5 50v198q-2 23 -7 37.5t-11 22.5 q-7 10 -16 14q9 4 16 14q6 8 11 22t7 37v164q0 34 -11 49t-35 15q-20 0 -27.5 -13.5t-7 -30t7.5 -31t16 -17.5q-9 -6 -18 -9q-8 -2 -16 0t-13 13q2 -23 -6 -35.5t-19 -19.5q-13 -8 -30 -10q9 28 7 64.5t-8 68.5q-7 38 -19 77h147q24 0 41 -5t28 -11q12 -7 20 -15q8 8 20 15 q11 6 27.5 11t41.5 5h147z" />
<glyph unicode="U" horiz-adv-x="445" d="M398 442q1 -23 6.5 -37t11.5 -22q7 -10 16 -14q-9 -4 -16 -14q-6 -8 -11.5 -22.5t-6.5 -37.5v-21q0 -80 -13 -132.5t-36 -84.5t-55 -45t-71 -13t-71 13t-55 45t-36 84.5t-13 132.5v21q-2 23 -7 37.5t-11 22.5q-7 10 -16 14q9 4 16 14q6 8 11 22t7 37v188q0 31 -8.5 49.5 t-35.5 20.5q5 7 13 13q7 5 16 9.5t21 4.5q13 0 22 -5t16 -11q7 -7 13 -15q5 8 13 15q6 6 15.5 11t22.5 5q11 0 20.5 -4.5t16.5 -9.5q8 -6 13 -13q-27 -2 -35.5 -20.5t-8.5 -49.5v-188q1 -23 6.5 -37t11.5 -22q7 -10 16 -14q-9 -4 -16 -14q-6 -8 -11.5 -22.5t-6.5 -37.5v-69 q0 -91 12.5 -130.5t48.5 -39.5t48.5 39.5t12.5 130.5v69q-2 23 -7 37.5t-11 22.5q-7 10 -16 14q9 4 16 14q6 8 11 22t7 37v188q0 31 -8.5 49.5t-35.5 20.5q5 7 13 13q7 5 16 9.5t21 4.5q13 0 22 -5t16 -11q7 -7 13 -15q5 8 13 15q6 6 15.5 11t22.5 5q11 0 20.5 -4.5 t15.5 -9.5q7 -6 13 -13q-26 -2 -34.5 -20.5t-8.5 -49.5v-188z" />
<glyph unicode="V" horiz-adv-x="472" d="M422 727q11 0 20 -4.5t15 -9.5q7 -6 11 -13q-26 -2 -37 -20.5t-15 -49.5l-25 -199q-2 -23 2.5 -37t9.5 -22q6 -10 14 -14q-9 -4 -18 -14q-8 -8 -15 -22.5t-11 -37.5l-23 -188q-4 -31 0 -51t22 -24q-3 -7 -9 -11q-5 -5 -13.5 -8t-22.5 -3q-18 0 -30 11.5t-17 20.5 q-6 -10 -13.5 -16t-14.5 -9q-8 -4 -16 -6q-9 2 -17 6q-7 3 -14.5 9t-12.5 16q-6 -9 -18 -20.5t-29 -11.5q-14 0 -22.5 3t-13.5 8q-6 4 -9 11q18 4 22 24t0 51l-23 188q-5 23 -12.5 37.5t-14.5 22.5q-9 10 -17 14q8 4 14 14q5 8 9 22t2 37l-24 199q-4 31 -15 49.5t-37 20.5 q4 7 11 13q6 5 14.5 9.5t20.5 4.5q13 0 22.5 -5t17.5 -11q8 -7 15 -15q4 8 11 15q5 6 14 11t22 5q11 0 21 -4.5t17 -9.5q8 -6 15 -13q-26 -2 -33 -22.5t-4 -47.5l55 -477q2 -18 4.5 -27.5t4.5 -13.5q2 -5 4 -5q1 0 4 5q2 4 4.5 13.5t4.5 27.5l55 477q3 27 -4 47.5t-33 22.5 q7 7 15 13q7 5 16.5 9.5t21.5 4.5q13 0 21.5 -5t14.5 -11q6 -7 11 -15q6 8 15 15q7 6 17 11t23 5z" />
<glyph unicode="W" horiz-adv-x="764" d="M713 727q11 0 20 -4.5t15 -9.5q7 -6 12 -13q-27 -2 -38 -20.5t-15 -49.5l-24 -199q-2 -23 2 -37t9 -22q6 -10 14 -14q-9 -4 -17 -14q-7 -8 -14.5 -22.5t-11.5 -37.5l-24 -188q-4 -31 0 -51t22 -24q-3 -7 -9 -11q-5 -5 -13.5 -8t-21.5 -3q-18 0 -30 11.5t-18 20.5 q-5 -10 -9.5 -16t-8.5 -9q-4 -4 -9 -6q-6 1 -11 5q-5 3 -9 9t-7 17q-5 -9 -15 -20.5t-28 -11.5q-14 0 -23 3t-14 8q-6 4 -10 11q17 4 18.5 24t-6.5 51l-57 233l-57 -233q-8 -31 -6.5 -51t18.5 -24q-4 -7 -10 -11q-5 -5 -14.5 -8t-22.5 -3q-18 0 -28.5 11.5t-14.5 20.5 q-3 -11 -7.5 -17t-9.5 -9q-5 -4 -10 -5q-5 2 -9 6q-4 3 -9 9t-10 16q-5 -9 -17 -20.5t-30 -11.5q-14 0 -22 3t-13 8q-6 4 -9 11q17 4 21.5 24t0.5 51l-24 188q-5 23 -12 37.5t-14 22.5q-8 10 -17 14q8 4 14 14q5 8 9 22t2 37l-24 199q-4 31 -15 49.5t-38 20.5q4 7 11 13 q6 5 15 9.5t21 4.5q13 0 22.5 -5t17.5 -11q8 -7 15 -15q4 8 11 15q5 6 14 11t22 5q11 0 21 -4.5t17 -9.5q8 -6 15 -13q-27 -2 -33.5 -22.5t-3.5 -47.5l55 -477q1 -4 1 -7.5t1 -6.5q2 4 4 14l95 398v14q0 31 -8.5 50t-35.5 21q5 7 13 13q7 5 16 9t21 4q13 0 22 -5t16 -11 q7 -7 13 -15q5 8 13 15q6 6 15.5 11t22.5 5q11 0 20.5 -4t16.5 -9q8 -6 13 -13q-22 -2 -31.5 -14.5t-11.5 -33.5l2 -15l-3 -14v-8l95 -398q2 -10 4 -14q1 3 1 6.5t1 7.5l55 477q3 27 -3.5 47.5t-33.5 22.5q7 7 15 13q7 5 16.5 9.5t21.5 4.5q13 0 21.5 -5t14.5 -11 q6 -7 11 -15q6 8 15 15q7 6 17 11t23 5z" />
<glyph unicode="X" horiz-adv-x="472" d="M400 97q11 -31 26 -50t42 -21q-4 -8 -10 -13q-5 -5 -13.5 -9t-19.5 -4q-16 0 -28 4.5t-20 10.5q-10 7 -17 16q-6 -9 -14 -16q-7 -6 -16.5 -10.5t-22.5 -4.5q-12 0 -21.5 4t-15.5 9q-8 5 -13 13q26 2 29 21t-7 50l-43 150l-43 -150q-10 -31 -7 -50t29 -21q-6 -8 -13 -13 t-16 -9t-21 -4q-13 0 -22.5 4.5t-16.5 10.5q-8 7 -14 16q-7 -9 -17 -16q-8 -6 -20 -10.5t-28 -4.5q-12 0 -20 4t-13 9q-6 5 -10 13q27 2 42 21t26 50l76 204q7 20 4.5 33t-8.5 21q-7 9 -18 14q10 3 16 11q5 7 8 18.5t-3 31.5l-75 200q-11 31 -26 49.5t-42 20.5q4 7 10 13 q5 5 13 9.5t20 4.5q16 0 28 -5t20 -11q10 -7 17 -15q6 8 14 15q7 6 16.5 11t22.5 5q12 0 21 -4.5t16 -9.5q7 -6 13 -13q-26 -2 -29 -20.5t7 -49.5l43 -150l43 150q10 31 7 49.5t-29 20.5q5 7 13 13q6 5 15.5 9.5t21.5 4.5q13 0 22.5 -5t16.5 -11q8 -7 14 -15q7 8 17 15 q8 6 20 11t28 5q11 0 19.5 -4.5t13.5 -9.5q6 -6 10 -13q-27 -2 -42 -20.5t-26 -49.5l-75 -200q-6 -20 -3.5 -31.5t7.5 -18.5q6 -8 17 -11q-11 -5 -18 -14q-6 -8 -8.5 -21t4.5 -33l76 -204v0z" />
<glyph unicode="Y" horiz-adv-x="458" d="M411 727q11 0 19.5 -4.5t13.5 -9.5q6 -6 10 -13q-27 -2 -42 -20.5t-26 -49.5l-99 -264q3 -18 8.5 -29.5t10.5 -17.5q6 -8 14 -11q-9 -4 -16 -14q-6 -8 -11.5 -22.5t-6.5 -37.5v-137q0 -31 8.5 -50t35.5 -21q-5 -8 -13 -13q-7 -5 -16.5 -9t-20.5 -4q-13 0 -22.5 4.5 t-15.5 10.5q-8 7 -13 16q-6 -9 -13 -16q-7 -6 -16 -10.5t-22 -4.5q-12 0 -21 4t-16 9q-8 5 -13 13q27 2 35.5 21t8.5 50v137q-2 23 -7 37.5t-11 22.5q-7 10 -16 14q7 4 13 11q5 6 11 17t9 29l-99 265q-11 31 -26 49.5t-42 20.5q4 7 10 13q5 5 13 9.5t20 4.5q16 0 28 -5 t20 -11q10 -7 17 -15q6 8 14 15q7 6 16.5 11t22.5 5q12 0 21 -4.5t16 -9.5q7 -6 13 -13q-26 -2 -29 -20.5t7 -49.5l36 -125l36 125q10 31 7 49.5t-29 20.5q6 7 13 13q6 5 15 9.5t21 4.5q13 0 23 -5t17 -11q8 -7 14 -15q7 8 17 15q8 6 20 11t28 5zM172 360v1v-1zM286 360v1 v-1z" />
<glyph unicode="Z" horiz-adv-x="386" d="M362 209q-9 -29 -7 -65t8 -68q7 -38 19 -76h-189q-25 0 -41.5 4.5t-27.5 10.5q-12 6 -20 15v1q-6 -9 -13 -16q-7 -6 -16 -10.5t-22 -4.5q-12 0 -21 4t-15 9q-7 5 -13 13q26 2 34.5 21t8.5 50q0 24 5 47t14 46l76 176q-21 10 -43 14.5t-48 -3.5q11 18 25 29q12 10 29 15.5 t38 -2.5q5 -2 9 -4t9 -4l46 108q18 40 18 87q0 34 -18.5 49.5t-40.5 15.5h-16q-20 0 -27.5 -13.5t-6.5 -30.5t7.5 -31.5t15.5 -17.5q-9 -7 -18 -9q-8 -2 -16 0.5t-13 13.5q2 -23 -5.5 -36t-18.5 -20q-12 -8 -30 -10q9 28 7 64.5t-8 68.5q-7 38 -19 77h175q24 0 41 -5t28 -11 q12 -7 20 -15q5 8 13 15q6 6 15.5 11t22.5 5q11 0 20.5 -4.5t15.5 -9.5q7 -6 13 -13q-26 -2 -34.5 -20.5t-8.5 -49.5q0 -46 -18 -86l-76 -182q22 -12 44 -19t46 -4q-7 -10 -16 -18q-8 -7 -19 -12.5t-24 -5.5t-25.5 4t-25.5 10l-47 -113q-17 -40 -17 -83q0 -35 18.5 -50 t40.5 -15h30q19 0 27 13.5t7 30t-7.5 31.5t-15.5 17q9 6 18 9q8 2 16 0t13 -13q-3 23 5 35.5t19 19.5q12 8 30 10z" />
<glyph unicode="[" horiz-adv-x="230" d="M36 727h190v-57h-81v-614h81v-56h-190v310q-2 22 -6.5 35.5t-10.5 21.5q-7 9 -15 13q7 3 14 12q5 8 10.5 21t7.5 34v280z" />
<glyph unicode="\" horiz-adv-x="194" d="M4 727h59l127 -727h-59l-127 727v0z" />
<glyph unicode="]" horiz-adv-x="230" d="M194 417q1 -22 6 -35.5t11 -21.5q7 -9 15 -13q-9 -4 -15 -13q-6 -8 -10.5 -21t-6.5 -34v-279h-190v56h81v614h-81v57h190v-310v0z" />
<glyph unicode="^" horiz-adv-x="348" d="M146 727h56l142 -359h-74l-96 278l-96 -278h-74l142 359v0z" />
<glyph unicode="_" horiz-adv-x="368" d="M4 -71v71h360v-71h-360v0z" />
<glyph unicode="`" horiz-adv-x="182" d="M178 528h-49l-125 138l84 42l90 -180v0z" />
<glyph unicode="a" horiz-adv-x="448" d="M394 92q4 -29 14 -47t36 -20q-5 -8 -11 -13q-5 -5 -13.5 -8.5t-19.5 -3.5q-12 0 -21.5 4.5t-16.5 9.5q-8 6 -14 15q-5 -9 -11 -15q-5 -5 -13.5 -9.5t-20.5 -4.5q-11 0 -20 3.5t-16 8.5q-8 5 -14 13q25 2 31.5 21.5t3.5 45.5l-13 109l-100 16l-15 -125q-3 -26 3.5 -45.5 t31.5 -21.5q-6 -8 -14 -13q-7 -5 -16 -8.5t-20 -3.5q-13 0 -21.5 4.5t-13.5 9.5q-6 6 -10 15q-6 -9 -14 -15q-7 -5 -16.5 -9.5t-21.5 -4.5q-11 0 -19.5 3.5t-13.5 8.5q-6 5 -11 13q26 2 36 20t14 47l22 167q1 22 -2.5 35.5t-8.5 21.5q-5 9 -13 13q8 4 16 13q7 8 13.5 21.5 t11.5 35.5l22 179q4 29 0.5 48.5t-20.5 22.5q3 6 8 10t13 7.5t21 3.5q17 0 28.5 -11t16.5 -19q10 17 26 24q8 4 16 6q8 -2 16 -6q16 -7 26 -24q5 8 16.5 19t28.5 11q13 0 21 -3.5t13 -7.5t8 -10q-17 -3 -20.5 -22.5t0.5 -48.5l22 -179q4 -22 10.5 -35.5t13.5 -21.5 q8 -9 17 -13q-9 -4 -14 -13q-5 -8 -8.5 -21.5t-1.5 -35.5zM265 283l-29 240q-2 17 -4 26.5t-4 13.5t-4 5q-2 -1 -4 -5t-4 -13.5t-4 -26.5l-27 -226z" />
<glyph unicode="b" horiz-adv-x="396" d="M296 356q20 -7 37.5 -20t30.5 -33.5t20.5 -50.5t7.5 -70q0 -62 -16.5 -98.5t-42.5 -55t-57.5 -23.5t-61.5 -5h-30q-23 0 -39 4.5t-26 9.5q-11 6 -19 15q-6 -9 -13 -15q-6 -5 -15 -9.5t-21 -4.5q-11 0 -20 3.5t-15 8.5q-7 5 -12 13q26 2 34 20t8 47v189q-2 22 -7 35.5 t-11 21.5q-7 9 -15 13q8 4 15 13q6 8 11 21.5t7 35.5v157q0 29 -8 47t-34 20q5 7 12 12q6 5 15 9t20 4q12 0 21 -5t15 -10q7 -6 13 -14q8 8 19 14q10 5 26 10t39 5h40q30 0 57.5 -8.5t49 -28t34.5 -50.5t13 -76q0 -55 -22.5 -91.5t-59.5 -59.5zM154 358q23 5 44 15t37 27 t25.5 43t9.5 64q0 63 -13 86t-47 23q-21 0 -38.5 -14.5t-17.5 -47.5v-196zM210 53q17 0 30.5 1.5t23.5 13t15 38t5 76.5q0 46 -8 72.5t-21 40t-28.5 17.5t-31.5 4q-10 -2 -19 -4t-19 -4q11 -49 57 -40q-3 -15 -11 -26q-7 -9 -18.5 -15.5t-30.5 -1.5v-96v-14q0 -32 17.5 -47 t38.5 -15z" />
<glyph unicode="c" horiz-adv-x="416" d="M220 421q26 2 34 20t8 47q0 39 -3 64t-9.5 39t-18 19.5t-28.5 5.5q-34 0 -46 -37.5t-12 -124.5v-33q2 -22 7 -35.5t11 -21.5q7 -9 15 -13q-8 -4 -15 -13q-6 -8 -11 -21.5t-7 -35.5v-65q0 -87 12 -125t46 -38q17 0 28.5 7t18 24t9.5 46t3 74q0 29 -8 47t-34 20q5 7 12 12 q6 5 15 9t20 4q12 0 21.5 -5t15.5 -10q7 -6 12 -14q5 8 12 14q6 5 15 10t21 5q11 0 20 -4t15 -9q7 -5 13 -12q-26 -2 -34 -20t-8 -47q0 -65 -12 -105t-34 -62t-53 -30t-68 -8t-67.5 12.5t-52.5 42.5t-34 80.5t-12 126.5v20q-2 22 -7 35.5t-11 21.5q-7 9 -15 13q8 4 15 13 q6 8 11 21.5t7 35.5q1 72 13.5 120t34.5 76.5t52 40.5t66 12q37 0 68 -9t53 -30.5t34 -56.5t12 -86q0 -29 8 -47t34 -20q-6 -8 -13 -13q-6 -5 -15 -8.5t-20 -3.5q-12 0 -21 4.5t-15 9.5q-7 6 -12 15q-5 -9 -12 -15q-6 -5 -15.5 -9.5t-21.5 -4.5q-11 0 -20 3.5t-15 8.5 q-7 5 -12 13z" />
<glyph unicode="d" horiz-adv-x="419" d="M384 408q2 -18 7.5 -29t10.5 -17q6 -7 13 -11q-7 -3 -12 -10q-5 -6 -10 -16t-8 -26q-7 -156 -59.5 -227.5t-140.5 -71.5q-24 0 -40 4.5t-26 9.5q-11 6 -19 15q-5 -9 -12 -15q-6 -5 -15 -9.5t-21 -4.5q-11 0 -20 3.5t-15 8.5q-7 5 -13 13q26 2 34 20t8 47v189 q-2 22 -7 35.5t-11 21.5q-7 9 -15 13q8 4 15 13q6 8 11 21.5t7 35.5v157q0 29 -8 47t-34 20q6 7 13 13q6 5 15 9t20 4q12 0 21 -5t15 -10q7 -7 12 -15q8 8 19 14q10 5 26 10t40 5q43 0 78 -13.5t60.5 -44.5t40.5 -81t20 -123zM191 54q32 0 53.5 59t25.5 176q-2 19 -7.5 31 t-10.5 19q-6 8 -14 12q8 4 14 12q5 7 10.5 18t7.5 30q-5 110 -26.5 158t-52.5 48q-15 0 -26 -15t-11 -47v-134q2 -22 7 -35.5t11 -21.5q7 -9 15 -13q-8 -4 -15 -13q-6 -8 -11 -21.5t-7 -35.5v-166q0 -32 11 -46.5t26 -14.5z" />
<glyph unicode="e" horiz-adv-x="370" d="M366 670q-12 -20 -19 -43q-6 -20 -8 -46.5t7 -57.5q-10 -1 -20 3q-8 3 -17 10.5t-14 23.5q-6 -8 -14 -10t-15 0q-8 1 -16 6q5 3 10 11.5t7 17.5t0 17t-12 12q-15 3 -37 3h-8q-20 0 -38 -15t-18 -47v-204q12 19 28 36.5t33.5 30.5t35.5 19.5t35 2.5q20 -5 27.5 -20 t9.5 -32q1 -20 -4 -44q-5 3 -11 7q-6 3 -14.5 5.5t-22.5 2.5t-34 -6.5t-38.5 -20.5t-31.5 -35.5t-13 -52.5v-129q0 -32 18 -47t38 -15h8h22q18 0 25.5 13t6.5 29t-7 30t-15 16q8 5 17 8q7 2 15 0.5t13 -12.5q-3 22 4.5 34t18.5 19q12 7 28 10q-9 -27 -7 -61.5t8 -65.5 q7 -36 18 -73h-155h-25q-23 0 -39.5 4.5t-26.5 9.5q-12 6 -19 15q-5 -9 -12 -15q-6 -5 -15.5 -9.5t-21.5 -4.5q-11 0 -19.5 3.5t-14.5 8.5q-7 5 -13 13q26 2 34 20t8 47v189q-2 22 -7 35.5t-11 21.5q-7 9 -15 13q8 4 15 13q6 8 11 21.5t7 35.5v157q0 29 -8 47t-34 20 q6 7 13 13q6 5 14.5 9t19.5 4q12 0 21.5 -5t15.5 -10q7 -7 12 -15q7 8 19 14q10 5 26.5 10t39.5 5h25h156z" />
<glyph unicode="f" horiz-adv-x="370" d="M366 670q-12 -20 -19 -43q-6 -20 -8 -46.5t7 -57.5q-10 -1 -20 3q-8 3 -17 10.5t-14 23.5q-6 -8 -14 -10t-15 0q-8 1 -16 6q5 3 10 11.5t7 17.5t0 17t-12 12q-15 3 -37 3h-8q-20 0 -38 -15t-18 -47v-204q12 19 28 36.5t33.5 30.5t35.5 19.5t35 2.5q20 -5 27.5 -20 t9.5 -32q1 -20 -4 -44q-5 3 -11 7q-6 3 -14.5 5.5t-22.5 2.5t-34 -6.5t-38.5 -20.5t-31.5 -35.5t-13 -52.5v-153q0 -29 8 -46.5t34 -19.5q-5 -8 -12 -13q-6 -5 -15 -8.5t-20 -3.5q-13 0 -22 4.5t-15 9.5q-7 6 -12 15q-5 -9 -12 -15q-6 -5 -15.5 -9.5t-21.5 -4.5 q-11 0 -19.5 3.5t-14.5 8.5q-7 5 -13 13q26 2 34 20t8 47v189q-2 22 -7 35.5t-11 21.5q-7 9 -15 13q8 4 15 13q6 8 11 21.5t7 35.5v157q0 29 -8 47t-34 20q6 7 13 13q6 5 14.5 9t19.5 4q12 0 21.5 -5t15.5 -10q7 -7 12 -15q7 8 19 14q10 5 26.5 10t39.5 5h25h156z" />
<glyph unicode="g" horiz-adv-x="416" d="M220 448q26 2 34 20t8 47q0 54 -12 78t-47 24q-34 0 -46 -38t-12 -125v-33q2 -22 7 -35.5t11 -21.5q7 -9 15 -13q-8 -4 -15 -13q-6 -8 -11 -21.5t-7 -35.5v-65q0 -87 12 -125t46 -38q17 0 28.5 6t18 25t9.5 54t3 93q0 28 -8.5 42.5t-20.5 19t-25.5 0t-22.5 -15.5 q-2 7 -3 14q-1 6 -0.5 13.5t5.5 15.5q8 16 24 22.5t28 6.5q19 0 33.5 -6t24.5 -13q11 -8 19 -18q5 10 12 18q6 7 15 13t21 6q11 0 20 -4t15 -9q7 -6 13 -13q-26 -2 -34 -20t-8 -47v-25v-112q0 -43 6.5 -67.5t35.5 -32.5q-4 -6 -10 -10q-5 -4 -14.5 -6.5t-22.5 -2.5 q-23 0 -37.5 12t-21.5 29q-42 -42 -103 -42q-37 0 -67.5 12.5t-52.5 42.5t-34 80.5t-12 126.5v20q-2 22 -7 35.5t-11 21.5q-7 9 -15 13q8 4 15 13q6 8 11 21.5t7 35.5q1 72 13.5 120t35 77t54 41t72.5 12q74 0 116 -37.5t42 -118.5q0 -29 8 -47t34 -20q-6 -8 -13 -13 q-6 -5 -15 -8.5t-20 -3.5q-12 0 -21 4.5t-15 9.5q-7 6 -12 15q-5 -9 -12 -15q-6 -5 -15.5 -9.5t-21.5 -4.5q-11 0 -20 3.5t-15 8.5q-7 5 -12 13z" />
<glyph unicode="h" horiz-adv-x="424" d="M378 421q2 -22 7 -35.5t11 -21.5q7 -9 15 -13q-8 -4 -15 -13q-6 -8 -11 -21.5t-7 -35.5v-189q0 -29 8 -47t34 -20q-5 -8 -12 -13q-6 -5 -15 -8.5t-20 -3.5q-12 0 -21.5 4.5t-15.5 9.5q-7 6 -12 15q-5 -9 -12 -15q-6 -5 -15 -9.5t-21 -4.5q-11 0 -20 3.5t-15 8.5 q-7 5 -13 13q26 2 34 20t8 47v180l-116 19v-199q0 -29 8 -47t33 -20q-5 -8 -12 -13q-6 -5 -15 -8.5t-20 -3.5q-12 0 -21 4.5t-15 9.5q-7 6 -12 15q-6 -9 -13 -15q-6 -5 -15 -9.5t-21 -4.5q-11 0 -20 3.5t-15 8.5q-7 5 -12 13q26 2 34 20t8 47v189q-2 22 -7 35.5t-11 21.5 q-7 9 -15 13q8 4 15 13q6 8 11 21.5t7 35.5v157q0 29 -8 47t-34 20q5 7 12 12q6 5 15 9t20 4q12 0 21 -5t15 -10q7 -6 13 -14q5 8 12 14q6 5 15 10t21 5q11 0 20 -4t15 -9q7 -5 12 -12q-25 -2 -33 -20t-8 -47v-206l116 -19v225q0 29 -8 47t-34 20q6 7 13 12q6 5 15 9t20 4 q12 0 21 -5t15 -10q7 -6 12 -14q5 8 12 14q6 5 15.5 10t21.5 5q11 0 20 -4t15 -9q7 -5 12 -12q-26 -2 -34 -20t-8 -47v-157z" />
<glyph unicode="i" horiz-adv-x="200" d="M154 421q1 -22 6.5 -35.5t11.5 -21.5q7 -9 15 -13q-8 -4 -15 -13q-6 -8 -11.5 -21.5t-6.5 -35.5v-189q0 -29 8 -47t34 -20q-6 -8 -13 -13q-6 -5 -14.5 -8.5t-19.5 -3.5q-13 0 -22 4.5t-15 9.5q-7 6 -12 15q-5 -9 -12 -15q-6 -5 -15.5 -9.5t-21.5 -4.5q-11 0 -19.5 3.5 t-14.5 8.5q-7 5 -13 13q26 2 34 20t8 47v189q-2 22 -7 35.5t-11 21.5q-7 9 -15 13q8 4 15 13q6 8 11 21.5t7 35.5v157q0 29 -8 47t-34 20q6 7 13 12q6 5 14.5 9t19.5 4q12 0 21.5 -5t15.5 -10q7 -6 12 -14q5 8 12 14q6 5 15 10t22 5q11 0 19.5 -4t14.5 -9q7 -5 13 -12 q-26 -2 -34 -20t-8 -47v-157z" />
<glyph unicode="j" horiz-adv-x="424" d="M378 421q2 -22 7 -35.5t11 -21.5q7 -9 15 -13q-8 -4 -15 -13q-6 -8 -11 -21.5t-7 -35.5v-25q0 -76 -12 -126.5t-34 -80.5t-52.5 -42.5t-67.5 -12.5t-67.5 8t-52.5 30t-34 62t-12 105q0 29 -8 47t-34 20q5 7 12 12q6 5 15 9t20 4q12 0 21 -5t15 -10q7 -6 13 -14q5 8 12 14 q6 5 15 10t21 5q11 0 20 -4t15 -9q7 -5 12 -12q-25 -2 -33 -20t-8 -47q0 -45 2.5 -74t9 -46t18 -24t28.5 -7q34 0 46 38t12 125v70q-2 22 -7 35.5t-11 21.5q-7 9 -15 13q8 4 15 13q6 8 11 21.5t7 35.5v157q0 29 -8 47t-34 20q6 7 13 12q6 5 15 9t20 4q12 0 21 -5t15 -10 q7 -6 12 -14q5 8 12 14q6 5 15.5 10t21.5 5q11 0 20 -4t15 -9q7 -5 12 -12q-26 -2 -34 -20t-8 -47v-157z" />
<glyph unicode="k" horiz-adv-x="434" d="M430 645q-26 -2 -42 -20t-28 -47l-120 -243l120 -243q12 -29 28 -47t42 -20q-4 -8 -9 -13t-12 -8.5t-18 -3.5q-16 0 -28 4.5t-20 9.5q-10 6 -17 15q-5 -9 -12 -15q-6 -5 -15 -9.5t-21 -4.5q-11 0 -20.5 3.5t-15.5 8.5q-8 5 -13 13q24 2 25 20t-11 47l-88 197h-1v-197 q0 -29 8 -47t34 -20q-6 -8 -13 -13q-6 -5 -14.5 -8.5t-19.5 -3.5q-13 0 -22 4.5t-15 9.5q-7 6 -12 15q-5 -9 -12 -15q-6 -5 -15.5 -9.5t-21.5 -4.5q-11 0 -20 3.5t-15 8.5q-7 5 -12 13q26 2 34 20t8 47v189q-2 22 -7 35.5t-11 21.5q-7 9 -15 13q8 4 15 13q6 8 11 21.5 t7 35.5v157q0 29 -8 47t-34 20q5 7 12 12q6 5 15 9t20 4q12 0 21.5 -5t15.5 -10q7 -6 12 -14q5 8 12 14q6 5 15 10t22 5q11 0 19.5 -4t14.5 -9q7 -5 13 -12q-26 -2 -34 -20t-8 -47v-197h1l88 197q12 29 11 47t-25 20q5 7 13 12q6 5 15.5 9t20.5 4q12 0 21 -5t15 -10 q7 -6 12 -14q7 8 17 14q8 5 20 10t28 5q11 0 18 -4t12 -9t9 -12z" />
<glyph unicode="l" horiz-adv-x="369" d="M346 200q-9 -27 -7 -61.5t8 -65.5q7 -36 18 -73h-155h-25q-23 0 -39.5 4.5t-26.5 9.5q-12 6 -19 15q-5 -9 -12 -15q-6 -5 -15 -9.5t-21 -4.5q-11 0 -20 3.5t-15 8.5q-7 5 -13 13q26 2 34 20t8 47v189q-2 22 -7 35.5t-11 21.5q-7 9 -15 13q8 4 15 13q6 8 11 21.5t7 35.5 v157q0 29 -8 47t-34 20q6 7 13 12q6 5 15 9t20 4q12 0 21 -5t15 -10q7 -6 12 -14q5 8 12 14q6 5 15.5 10t21.5 5q11 0 20 -4t15 -9q7 -5 12 -12q-26 -2 -34 -20t-8 -47v-157q2 -22 7 -35.5t11 -21.5q7 -9 15 -13q-8 -4 -15 -13q-6 -8 -11 -21.5t-7 -35.5v-166q0 -32 18 -47 t38 -15h8h22q18 0 25.5 13t6.5 29t-7 30t-15 16q8 5 17 8q7 2 15 0.5t13 -12.5q-3 22 4.5 34t18.5 19q12 7 28 10z" />
<glyph unicode="m" horiz-adv-x="604" d="M559 421q1 -22 6 -35.5t11 -21.5q7 -9 15 -13q-8 -4 -15 -13q-6 -8 -11 -21.5t-6 -35.5v-189q0 -29 7.5 -47t33.5 -20q-5 -8 -12 -13q-6 -5 -15 -8.5t-20 -3.5q-12 0 -21.5 4.5t-15.5 9.5q-7 6 -12 15q-5 -9 -12 -15q-6 -5 -15 -9.5t-21 -4.5q-11 0 -20 3.5t-15 8.5 q-7 5 -12 13q25 2 33 20t8 47v310l-93 -226q0 -29 8 -46.5t34 -19.5q-6 -8 -13 -13q-6 -5 -15 -9t-20 -4q-12 0 -21 4.5t-15 10.5q-7 6 -12 15q-5 -9 -12 -15q-6 -6 -15.5 -10.5t-21.5 -4.5q-11 0 -20 4t-15 9q-7 5 -12 13q24 2 32.5 18.5t9.5 43.5l-95 230v-310 q0 -29 7.5 -47t33.5 -20q-5 -8 -12 -13q-6 -5 -15 -8.5t-20 -3.5q-12 0 -21.5 4.5t-15.5 9.5q-7 6 -12 15q-5 -9 -12 -15q-6 -5 -15 -9.5t-21 -4.5q-11 0 -20 3.5t-15 8.5q-7 5 -12 13q25 2 33 20t8 47v189q-2 22 -6.5 35.5t-10.5 21.5q-7 9 -15 13q8 4 15 13q6 8 10.5 21.5 t6.5 35.5v157q0 29 -8 47t-33 20q5 7 12 12q6 5 15 9t20 4q12 0 21 -5t15 -10q7 -6 12 -14q5 8 12 14q6 5 15.5 10t21.5 5q11 0 20 -4t15 -9q7 -5 12 -12q-18 -1 -28 -13l135 -331l135 331q-10 12 -28 13q5 7 12 12q6 5 15 9t20 4q12 0 21 -5t15 -10q7 -6 12 -14q5 8 12 14 q6 5 15.5 10t21.5 5q11 0 20 -4t15 -9q7 -5 12 -12q-25 -2 -33 -20t-8 -47v-157z" />
<glyph unicode="n" horiz-adv-x="438" d="M392 421q1 -22 6.5 -35.5t11.5 -21.5q7 -9 15 -13q-8 -4 -15 -13q-6 -8 -11.5 -21.5t-6.5 -35.5v-189q0 -29 8 -47t34 -20q-6 -8 -13 -13q-6 -5 -15 -8.5t-20 -3.5q-12 0 -21 4.5t-15 9.5q-7 6 -12 15q-6 -9 -13 -15q-6 -5 -15 -9.5t-21 -4.5q-11 0 -20 3.5t-15 8.5 q-7 5 -12 13q26 2 34 20t8 47v137l-130 195v-332q0 -29 8 -47t34 -20q-5 -8 -12 -13q-6 -5 -15 -8.5t-20 -3.5q-13 0 -22 4.5t-15 9.5q-7 6 -12 15q-5 -9 -12 -15q-6 -5 -15.5 -9.5t-21.5 -4.5q-11 0 -19.5 3.5t-14.5 8.5q-7 5 -13 13q26 2 34 20t8 47v189q-2 22 -7 35.5 t-11 21.5q-7 9 -15 13q8 4 15 13q6 8 11 21.5t7 35.5v157q0 29 -8 47t-34 20q6 7 13 12q6 5 14.5 9t19.5 4q12 0 21.5 -5t15.5 -10q7 -6 12 -14q5 8 12 14q6 5 15 10t22 5q11 0 20 -4t15 -9q7 -5 12 -12q-21 -2 -30 -14.5t-11 -34.5l127 -190q1 3 1 7t1 8v157q0 29 -8 47 t-34 20q5 7 12 12q6 5 15 9t20 4q12 0 21 -5t15 -10q7 -6 13 -14q5 8 12 14q6 5 15 10t21 5q11 0 20 -4t15 -9q7 -5 13 -12q-26 -2 -34 -20t-8 -47v-157z" />
<glyph unicode="o" horiz-adv-x="406" d="M369 421q2 -22 7 -35.5t11 -21.5q7 -9 15 -13q-8 -4 -15 -13q-6 -8 -11 -21.5t-7 -35.5v-20q0 -76 -12 -126.5t-34 -80.5t-52.5 -42.5t-67.5 -12.5t-67.5 12.5t-52.5 42.5t-34 80.5t-12 126.5v20q-2 22 -7 35.5t-11 21.5q-7 9 -15 13q8 4 15 13q6 8 11 21.5t7 35.5 q1 72 13.5 120t34.5 76.5t52 40.5t66 12t66 -12t52 -40.5t34.5 -76.5t13.5 -120zM261 454q0 87 -12 124.5t-46 37.5q-29 0 -41.5 -25t-15.5 -83q0 -38 15.5 -55.5t44.5 -10.5q-4 -15 -11 -26q-6 -9 -17.5 -15.5t-29.5 -3.5q3 -14 8 -23t10 -14q5 -6 11 -9q-8 -4 -15 -13 q-6 -8 -11 -21.5t-6 -35.5v-65q0 -87 11.5 -125t46.5 -38q34 0 46 38t12 125v65q-2 22 -7 35.5t-11 21.5q-7 9 -15 13q8 4 15 13q6 8 11 21.5t7 35.5v33z" />
<glyph unicode="p" horiz-adv-x="382" d="M214 670q30 0 59.5 -11.5t52.5 -34t37.5 -56.5t14.5 -79q0 -50 -17.5 -91t-47.5 -71t-71 -47.5t-88 -20.5v-168q0 -29 8 -46.5t33 -19.5q-5 -8 -12 -13q-6 -5 -15 -8.5t-20 -3.5q-12 0 -21.5 4.5t-15.5 9.5q-7 6 -12 15q-5 -9 -12 -15q-6 -5 -15 -9.5t-21 -4.5 q-11 0 -20 3.5t-15 8.5q-7 5 -12 13q25 2 33 20t8 47v189q-2 22 -6.5 35.5t-10.5 21.5q-7 9 -15 13q8 4 15 13q6 8 10.5 21.5t6.5 35.5v157q0 29 -8 47t-33 20q5 7 12 12q6 5 15 9t20 4q12 0 21 -5t15 -10q7 -6 12 -14q7 8 19 14q10 5 26.5 10t39.5 5h30zM154 311 q59 5 87.5 53t28.5 125q0 63 -13.5 95t-46.5 32q-21 0 -38.5 -14.5t-17.5 -47.5v-243z" />
<glyph unicode="q" horiz-adv-x="408" d="M285 19q16 -13 31.5 -27t33 -23t38.5 -11.5t48 8.5q-2 -25 -12 -43q-8 -16 -25 -29t-46 -13t-47 18.5t-33 40.5t-30 40.5t-39 18.5q-37 0 -68 12.5t-53 42.5t-34 80.5t-12 126.5v20q-2 22 -7 35.5t-11 21.5q-7 9 -15 13q8 4 15 13q6 8 11 21.5t7 35.5q1 72 13.5 120 t34.5 76.5t52.5 40.5t66.5 12t66 -12t52 -40.5t34.5 -76.5t13.5 -120q1 -22 6.5 -35.5t11.5 -21.5q7 -9 15 -13q-8 -4 -15 -13q-6 -8 -11.5 -21.5t-6.5 -35.5v-20q0 -105 -23 -162t-62 -80zM262 454q0 87 -12 124.5t-46 37.5q-28 0 -40.5 -23t-16.5 -76q3 -30 18.5 -44 t41.5 -9q-4 -15 -12 -26q-7 -9 -18.5 -16t-31.5 -2q2 -22 7 -35t11 -21q7 -9 15 -13q-8 -4 -15 -13q-6 -8 -11 -21.5t-7 -35.5v-65q0 -87 12 -125t47 -38q34 0 46 38t12 125v65q-2 22 -7 35.5t-11 21.5q-7 9 -15 13q8 4 15 13q6 8 11 21.5t7 35.5v33z" />
<glyph unicode="r" horiz-adv-x="438" d="M364 92q12 -29 28 -47t42 -20q-4 -8 -9 -13t-13 -8.5t-19 -3.5q-15 0 -27.5 4.5t-20.5 9.5q-10 6 -17 15q-5 -9 -12 -15q-6 -5 -15 -9.5t-21 -4.5q-11 0 -20.5 3.5t-15.5 8.5q-8 5 -13 13q25 2 25.5 20t-11.5 47l-70 169q-5 -1 -10.5 -1t-10.5 -1v-168q0 -29 8 -46.5 t34 -19.5q-5 -8 -12 -13q-6 -5 -15 -8.5t-20 -3.5q-13 0 -22 4.5t-15 9.5q-7 6 -12 15q-5 -9 -12 -15q-6 -5 -15 -9.5t-21 -4.5q-11 0 -20 3.5t-15 8.5q-7 5 -13 13q26 2 34 20t8 47v189q-2 22 -7 35.5t-11 21.5q-7 9 -15 13q8 4 15 13q6 8 11 21.5t7 35.5v157q0 29 -8 47 t-34 20q6 7 13 12q6 5 15 9t20 4q12 0 21 -5t15 -10q7 -6 12 -14q7 8 19 14q10 5 26.5 10t39.5 5h30q30 0 59 -11.5t52.5 -34t38 -56.5t14.5 -79q0 -63 -27.5 -112t-73.5 -78zM154 311q59 5 88 53t29 125q0 63 -13.5 95t-47.5 32q-20 0 -38 -14.5t-18 -47.5v-61 q19 4 31 -2.5t19 -15.5q8 -11 11 -26q-29 7 -45 -11t-16 -55v-72z" />
<glyph unicode="s" horiz-adv-x="424" d="M378 520q0 -29 8 -47t34 -20q-5 -8 -12 -13q-6 -5 -15 -8.5t-20 -3.5q-12 0 -21.5 4.5t-15.5 9.5q-7 6 -12 15q-5 -9 -12 -15q-6 -5 -15 -9.5t-21 -4.5q-11 0 -20 3.5t-15 8.5q-7 5 -13 13q26 2 34 20t8 47q0 45 -13.5 70.5t-44.5 25.5q-28 0 -43 -16t-15 -54 q0 -44 17.5 -77t43.5 -62q14 -10 24.5 -13t18.5 -4q9 -1 17 1q-2 -7 -2 -15q0 -7 2.5 -17t10.5 -22q37 -36 64.5 -80.5t27.5 -108.5q0 -36 -15 -64t-39 -46.5t-53.5 -28t-58.5 -9.5q-166 0 -166 155q0 29 -8 47t-34 20q5 7 12 12q6 5 15 9t20 4q12 0 21 -5t15 -10 q7 -6 13 -14q5 8 12 14q6 5 15 10t21 5q11 0 20 -4t15 -9q7 -5 12 -12q-25 -2 -33 -20t-8 -47q0 -60 16.5 -80.5t41.5 -20.5q20 0 39 19t19 65q0 47 -15 76.5t-38 58.5q-23 13 -37 13q-8 0 -14 -2q2 5 2 13q0 7 -2.5 16.5t-9.5 21.5q-21 19 -41 37.5t-35 40t-24.5 46 t-9.5 55.5q0 36 12 65t34 49t52.5 31t67.5 11t67.5 -7.5t52.5 -25.5t34 -46.5t12 -70.5z" />
<glyph unicode="t" horiz-adv-x="458" d="M454 671q-12 -38 -19 -74q-6 -31 -7.5 -65.5t7.5 -61.5q-17 2 -29 10q-11 6 -18.5 18.5t-4.5 34.5q-5 -11 -13 -13t-15 0q-9 2 -17 8q9 3 15.5 17t7 30t-7 29t-26.5 13q-44 0 -44 -62v-15v-119q1 -22 6.5 -35.5t11.5 -21.5q7 -9 15 -13q-8 -4 -15 -13q-6 -8 -11.5 -21.5 t-6.5 -35.5v-189q0 -29 8 -47t34 -20q-6 -8 -13 -13q-6 -5 -14.5 -8.5t-19.5 -3.5q-13 0 -22 4.5t-15 9.5q-7 6 -12 15q-5 -9 -12 -15q-6 -5 -15.5 -9.5t-21.5 -4.5q-11 0 -19.5 3.5t-14.5 8.5q-7 5 -13 13q26 2 34 20t8 47v189q-2 22 -7 35.5t-11 21.5q-7 9 -15 13 q8 4 15 13q6 8 11 21.5t7 35.5v134q0 62 -44 62q-19 0 -26.5 -13t-7 -29t7 -30t15.5 -17q-9 -6 -17 -8t-15.5 0t-12.5 13q2 -22 -5 -34.5t-18 -18.5q-12 -8 -29 -10q9 27 7 61.5t-8 65.5q-7 36 -18 74l140 -1q23 0 39 -5t27 -10q11 -6 19 -14q7 8 19 14q10 5 26.5 10t39.5 5 z" />
<glyph unicode="u" horiz-adv-x="424" d="M378 421q2 -22 7 -35.5t11 -21.5q7 -9 15 -13q-8 -4 -15 -13q-6 -8 -11 -21.5t-7 -35.5v-20q0 -76 -12 -126.5t-34 -80.5t-52.5 -42.5t-67.5 -12.5t-67.5 12.5t-52.5 42.5t-34 80.5t-12 126.5v20q-2 22 -7 35.5t-11 21.5q-7 9 -15 13q8 4 15 13q6 8 11 21.5t7 35.5v157 q0 29 -8 47t-34 20q5 7 12 13q6 5 15 9t20 4q12 0 21 -5t15 -10q7 -7 13 -15q5 8 12 15q6 5 15 10t21 5q11 0 20 -4t15 -9q7 -6 12 -13q-25 -2 -33 -20t-8 -47v-157q1 -22 6 -35.5t11 -21.5q7 -9 15 -13q-8 -4 -15 -13q-6 -8 -11 -21.5t-6 -35.5v-65q0 -87 11.5 -125 t46.5 -38q34 0 46 38t12 125v65q-2 22 -7 35.5t-11 21.5q-7 9 -15 13q8 4 15 13q6 8 11 21.5t7 35.5v157q0 29 -8 47t-34 20q6 7 13 13q6 5 15 9t20 4q12 0 21 -5t15 -10q7 -7 12 -15q5 8 12 15q6 5 15.5 10t21.5 5q11 0 20 -4t15 -9q7 -6 12 -13q-26 -2 -34 -20t-8 -47 v-157z" />
<glyph unicode="v" horiz-adv-x="448" d="M400 670q11 0 19.5 -4t13.5 -9q6 -5 11 -12q-26 -2 -36 -20t-14 -47l-22 -167q-2 -22 1.5 -35.5t8.5 -21.5q5 -9 14 -13q-9 -4 -17 -13q-7 -8 -13.5 -21.5t-10.5 -35.5l-22 -179q-4 -29 -0.5 -48.5t20.5 -22.5q-3 -7 -8 -11t-13 -7t-21 -3q-17 0 -28.5 11t-16.5 19 q-5 -10 -12 -15.5t-14 -8.5q-8 -4 -16 -6q-8 2 -16 6q-7 3 -14 8.5t-12 15.5q-5 -8 -16.5 -19t-28.5 -11q-13 0 -21 3t-13 7t-8 11q17 3 20.5 22.5t-0.5 48.5l-22 179q-5 22 -11.5 35.5t-13.5 21.5q-8 9 -16 13q8 4 13 13q5 8 8.5 21.5t2.5 35.5l-22 167q-4 29 -14 47 t-36 20q5 7 11 12q5 5 13.5 9t19.5 4q12 0 21.5 -5t16.5 -10q8 -6 14 -14q4 8 10 14q5 5 13.5 10t21.5 5q11 0 20 -4t16 -9q8 -5 14 -12q-25 -2 -31.5 -21.5t-3.5 -45.5l52 -432q2 -17 4 -26t4 -13t4 -5q2 1 4 5t4 13t4 26l52 432q3 26 -3.5 45.5t-31.5 21.5q6 7 14 12 q7 5 16 9t20 4q12 0 20.5 -5t13.5 -10q6 -6 11 -14q6 8 14 14q7 5 16.5 10t21.5 5z" />
<glyph unicode="w" horiz-adv-x="727" d="M679 670q11 0 19.5 -4t13.5 -9q6 -5 11 -12q-26 -2 -36 -20t-14 -47l-23 -167q-2 -22 1.5 -35.5t8.5 -21.5q5 -9 14 -13q-9 -4 -17 -13q-7 -8 -13.5 -21.5t-10.5 -35.5l-22 -179q-4 -29 -0.5 -49t20.5 -23q-3 -7 -8 -11t-13 -7t-21 -3q-17 0 -28.5 11t-16.5 20 q-5 -10 -9 -15.5t-8 -8.5q-4 -4 -9 -6q-6 0 -10 4q-4 3 -8.5 9t-6.5 17q-5 -9 -15 -20t-27 -11q-13 0 -21 3t-13 7q-6 4 -10 11q16 3 17.5 23t-6.5 49l-54 209l-54 -209q-8 -29 -6.5 -49t17.5 -23q-4 -7 -10 -11q-5 -4 -13.5 -7t-20.5 -3q-17 0 -27 11t-15 20q-3 -11 -7 -17 t-8 -9q-4 -4 -10 -4q-5 2 -9 6q-4 3 -8.5 8.5t-8.5 15.5q-5 -9 -16.5 -20t-28.5 -11q-13 0 -21 3t-13 7t-8 11q17 3 20.5 23t-0.5 49l-22 179q-5 22 -11.5 35.5t-13.5 21.5q-8 9 -16 13q7 4 13 13q5 8 9 21.5t2 35.5l-24 167q-3 29 -13.5 47t-36.5 20q4 7 11 12q5 5 14 9 t20 4q12 0 21.5 -5t16.5 -10q8 -6 14 -14q4 8 10 14q5 5 13.5 10t21.5 5q11 0 20 -4t16 -9q8 -5 14 -12q-25 -2 -31.5 -21.5t-3.5 -45.5l53 -432q0 -6 2 -14q1 3 1.5 6.5t2.5 7.5l90 359v12q0 29 -8 46.5t-34 19.5q6 7 13 13q6 5 14.5 9t19.5 4q12 0 21.5 -5t15.5 -10 q7 -7 12 -15q5 8 12 15q6 5 15 10t22 5q11 0 19.5 -4t14.5 -9q7 -6 13 -13q-26 -2 -34 -19.5t-8 -46.5v-12l90 -359q1 -4 2 -7.5t2 -6.5q2 8 2 14l53 432q3 26 -3.5 45.5t-31.5 21.5q6 7 14 12q7 5 16 9t20 4q12 0 20.5 -5t13.5 -10q6 -6 11 -14q6 8 14 14q7 5 16.5 10 t21.5 5z" />
<glyph unicode="x" horiz-adv-x="452" d="M308 391q-2 -13 1.5 -20t8.5 -12t13 -8q-11 -4 -17 -13q-5 -8 -8 -20t4 -31l72 -195q11 -29 25.5 -47t40.5 -20q-4 -8 -10 -13q-5 -5 -12.5 -8.5t-18.5 -3.5q-16 0 -27.5 4.5t-19.5 9.5q-10 6 -16 15q-6 -9 -13 -15q-7 -5 -16 -9.5t-21 -4.5q-11 0 -20 3.5t-15 8.5 q-7 5 -13 13q25 2 27.5 20t-6.5 47l-41 144l-41 -144q-9 -29 -7 -47t27 -20q-5 -8 -12 -13q-6 -5 -15 -8.5t-20 -3.5q-12 0 -21.5 4.5t-15.5 9.5q-8 6 -13 15q-6 -9 -16 -15q-8 -5 -20 -9.5t-27 -4.5q-11 0 -18.5 3.5t-12.5 8.5q-6 5 -10 13q26 2 40.5 20t24.5 47l71 189 l2 6q6 19 3.5 31t-7.5 20q-6 9 -17 13q8 3 13 8t8 12t2 20l-75 187q-10 29 -24.5 47t-40.5 20q4 7 10 12q5 5 12.5 9t18.5 4q15 0 27 -5t20 -10q10 -6 16 -14q5 8 13 14q6 5 15.5 10t21.5 5q11 0 20 -4t15 -9q7 -5 12 -12q-25 -2 -27 -20t7 -47l41 -134l41 134q9 29 6.5 47 t-27.5 20q6 7 13 12q6 5 15 9t20 4q12 0 21 -5t16 -10q7 -6 13 -14q6 8 16 14q8 5 19.5 10t27.5 5q11 0 18.5 -4t12.5 -9q6 -5 10 -12q-26 -2 -40.5 -20t-25.5 -47z" />
<glyph unicode="y" horiz-adv-x="437" d="M393 670q11 0 18.5 -4t12.5 -9t9 -12q-26 -2 -40 -20t-25 -47l-93 -233q3 -16 8 -26t10 -16q6 -7 13 -10q-8 -4 -15 -13q-6 -8 -11 -21.5t-7 -35.5v-131q0 -29 8 -47t34 -20q-6 -8 -13 -13q-6 -5 -14.5 -8.5t-19.5 -3.5q-13 0 -22 4.5t-15 9.5q-7 6 -12 15q-5 -9 -12 -15 q-6 -5 -15.5 -9.5t-21.5 -4.5q-11 0 -19.5 3.5t-14.5 8.5q-7 5 -13 13q26 2 34 20t8 47v131q-2 22 -7 35.5t-11 21.5q-7 9 -15 13q6 3 12 10q5 6 10.5 16t8.5 26l-93 233q-11 29 -25.5 47t-40.5 20q4 7 10 12q5 5 12.5 9t18.5 4q15 0 27 -5t20 -10q10 -6 16 -14q5 8 13 14 q6 5 15.5 10t21.5 5q11 0 20 -4t15 -9q7 -5 13 -12q-25 -2 -27.5 -20t6.5 -47l34 -111l34 111q9 29 6.5 47t-27.5 20q6 7 13 12q6 5 14.5 9t19.5 4q12 0 21.5 -5t16.5 -10q8 -6 13 -14q6 8 16 14q8 5 19.5 10t27.5 5z" />
<glyph unicode="z" horiz-adv-x="369" d="M346 200q-9 -27 -7 -61.5t8 -65.5q7 -36 18 -73h-180q-23 0 -39.5 4.5t-26.5 9.5q-12 6 -19 15q-5 -9 -12 -15q-6 -5 -15 -9.5t-21 -4.5q-11 0 -20 3.5t-15 8.5q-7 5 -13 13q26 2 34 20t8 47q0 47 18 89l77 165q-21 11 -43 16t-48 -3q11 17 24 28q11 10 27 15t36 -3 q6 -2 11.5 -5t11.5 -6l39 84q17 40 17 83q0 32 -18 47t-39 15h-15q-19 0 -26 -13t-6.5 -29t7 -30t15.5 -17q-9 -6 -18 -8q-8 -2 -15 0t-12 13q2 -22 -5 -34.5t-18 -18.5q-12 -8 -29 -10q8 27 6.5 61.5t-7.5 65.5q-7 36 -18 73h167q23 0 39 -5t27 -10q11 -6 19 -14q5 8 12 14 q6 5 15 10t21 5q11 0 20 -4t15 -9q7 -5 12 -12q-25 -2 -33 -20t-8 -47q0 -41 -17 -83l-69 -152q20 -11 40.5 -17t41.5 -3q-7 -10 -16 -17q-8 -6 -18 -11.5t-22 -5.5q-11 0 -22.5 3.5t-22.5 8.5l-49 -106q-8 -20 -12 -40t-4 -40q0 -32 18 -47t38 -15h30q18 0 25.5 13t6.5 29 t-7 30t-15 16q8 5 17 8q7 2 15 0.5t13 -12.5q-3 22 4.5 34t18.5 19q12 7 28 10z" />
<glyph unicode="{" horiz-adv-x="250" d="M47 578q-7 41 6 70.5t40.5 48.5t66.5 28t86 9v-22q-23 0 -41.5 -6t-31 -19.5t-17.5 -37t0 -57.5q6 -39 10 -74.5t1 -65t-16.5 -51.5t-43.5 -34q30 -12 43.5 -34t16.5 -52t-1 -65.5t-10 -74.5q-5 -34 0 -57t17.5 -36.5t31 -19.5t41.5 -6v-22q-47 0 -86 9t-66.5 28 t-40.5 48t-6 70t12 74.5t2.5 60t-15.5 46t-42 31.5q29 12 42 31.5t15.5 46t-2.5 59.5t-12 74z" />
<glyph unicode="|" horiz-adv-x="66" d="M4 808h58v-930h-58v930v0z" />
<glyph unicode="}" horiz-adv-x="250" d="M203 578q-7 -41 -12 -74t-3 -59.5t15 -46t43 -31.5q-30 -12 -43 -31.5t-15 -46t3 -60t12 -74.5t-6 -70t-40.5 -48t-67 -28t-85.5 -9v22q22 0 41 6t31.5 19.5t17.5 36.5t0 57q-6 39 -10.5 74.5t-1.5 65.5t16.5 52t44.5 34q-31 12 -44.5 34t-16.5 51.5t1.5 65t10.5 74.5 q5 34 0 57.5t-17.5 37t-31.5 19.5t-41 6v22q46 0 85.5 -9t67 -28t40.5 -48.5t6 -70.5z" />
<glyph unicode="~" horiz-adv-x="409" d="M119 436q38 0 71.5 -12.5t67 -21t69.5 -4.5t78 38q-6 -31 -21 -56q-14 -21 -38 -38.5t-66 -17.5q-38 0 -72 11t-67 18.5t-66.5 3.5t-70.5 -33q8 31 23 56q13 21 35 38.5t57 17.5z" />
<glyph unicode="&#xa1;" horiz-adv-x="228" d="M63 236q-1 17 -4.5 27t-8.5 16q-5 7 -12 10q7 3 13 9q5 5 10 14t7 24l8 151q1 14 -4.5 22t-22.5 10q4 2 9 5q5 2 10.5 4t13.5 2t14 -2.5t10 -4.5l8 -6l8 6q4 2 10 4.5t14 2.5t13.5 -2t10.5 -4q5 -3 9 -5q-17 -2 -22.5 -10t-4.5 -22l8 -155q2 -15 7 -24t10 -14q6 -6 14 -9 q-8 -3 -13 -10q-5 -6 -8.5 -16t-3.5 -27l6 -120q2 -34 12.5 -55.5t39.5 -24.5q-5 -10 -13 -17q-7 -6 -17 -11t-23 -5q-14 0 -25 5.5t-18 13.5q-9 9 -14 20q-6 -11 -14 -20q-8 -8 -18.5 -13.5t-24.5 -5.5t-23.5 5t-16.5 11q-8 7 -13 17q29 3 39.5 24.5t12.5 55.5zM114 598 q-26 0 -45 19t-19 45q0 27 19 46t45 19q27 0 45.5 -19t18.5 -46q0 -26 -18.5 -45t-45.5 -19z" />
<glyph unicode="&#xa2;" horiz-adv-x="296" d="M156 465q18 2 24 14.5t6 32.5q0 63 -8.5 85t-32.5 22q-25 0 -33 -26.5t-8 -88.5v-39q1 -16 4 -25.5t8 -14.5q4 -6 11 -10q-7 -3 -11 -9q-11 -12 -12 -40v-47q0 -62 8 -88.5t33 -26.5q24 0 32.5 22t8.5 85q0 20 -6 33t-24 14q4 5 9 9q5 3 11 6t14 3t14.5 -3.5t11.5 -7.5 t8 -10q4 6 9 10t11 7.5t15 3.5q8 0 13.5 -3t10.5 -6q5 -4 9 -9q-18 -1 -23.5 -13.5t-5.5 -33.5q0 -42 -7 -69t-20.5 -43t-32 -23.5t-40.5 -8.5v-66h-37v66q-22 3 -40.5 14t-31.5 32.5t-20 55t-7 82.5v15q-1 15 -4.5 25t-7.5 15q-5 6 -11 9q6 4 11 10q4 5 7.5 14.5t4.5 25.5 v7q0 49 7 82.5t20 55t31.5 32.5t40.5 14v65h37v-65q22 -2 40.5 -9t32 -23t20.5 -43t7 -69q0 -20 5.5 -32.5t23.5 -14.5q-4 -5 -9 -9q-11 -9 -24 -9q-9 0 -15 3t-11 7t-9 11q-3 -7 -8 -11t-11.5 -7t-14.5 -3q-14 0 -25 9q-5 4 -9 9z" />
<glyph unicode="&#xa3;" horiz-adv-x="331" d="M192 572q18 2 23.5 15t5.5 33q0 31 -8.5 50t-32.5 19t-32.5 -26.5t-8.5 -88.5v-83h93v-37h-93v-18q0 -23 1 -51t6.5 -52.5t18 -41.5t35.5 -17h35q13 0 17.5 11.5t3 25.5t-7 26.5t-11.5 14.5q6 5 13 7q5 2 12 -0.5t12 -13.5q-3 21 5 33t19 18q12 7 29 10 q-12 -29 -13.5 -59t0.5 -55q3 -29 10 -56h-115q-38 0 -63.5 10.5t-40.5 27.5q-11 -17 -26 -27.5t-37 -10.5q-11 0 -18 2.5t-12 6.5t-8 9q21 4 32.5 15.5t17 35t7 59.5t1.5 90h-58v37h58v51q0 54 8.5 89.5t24 56.5t37.5 30t48 9t48 -5.5t37.5 -18t24 -33t8.5 -50.5 q0 -21 5.5 -33.5t23.5 -14.5q-4 -5 -9 -9q-11 -9 -24 -9q-9 0 -15 3t-11 7t-8 11q-4 -7 -9 -11t-11.5 -7t-14.5 -3t-13.5 2.5t-10.5 6.5t-9 9z" />
<glyph unicode="&#xa5;" horiz-adv-x="312" d="M279 727q8 0 13 -3t9 -6q4 -4 7 -9q-19 -2 -29 -14.5t-17 -32.5l-68 -182v-2h83v-37h-83v-48h83v-37h-83v-54q0 -21 6 -33.5t24 -14.5q-4 -5 -9 -9q-11 -9 -25 -9q-8 0 -14 3t-11 7t-9 11q-4 -7 -9 -11t-11 -7t-14 -3q-14 0 -25 9q-5 4 -9 9q18 2 24 14.5t6 33.5v54h-83 v37h83v48h-83v37h83v2l-68 182q-7 20 -17 32.5t-29 14.5q3 5 7 9q4 3 9 6t13 3q11 0 19.5 -3.5t13.5 -7.5q6 -4 11 -10q4 6 9 10t11.5 7.5t15.5 3.5q8 0 13.5 -3t10.5 -6q5 -4 9 -9q-17 -2 -19 -14.5t5 -32.5l24 -85l24 85q7 20 5 32.5t-20 14.5q4 5 9 9q5 3 11 6t14 3 t15 -3.5t12 -7.5t9 -10q5 6 11 10q5 4 13.5 7.5t19.5 3.5z" />
<glyph unicode="&#xa8;" horiz-adv-x="263" d="M60 725q23 0 39.5 -16.5t16.5 -39.5t-16.5 -39t-39.5 -16t-39.5 16t-16.5 39t16.5 39.5t39.5 16.5zM204 725q23 0 39 -16.5t16 -39.5t-16 -39t-39 -16t-39.5 16t-16.5 39t16.5 39.5t39.5 16.5z" />
<glyph unicode="&#xa9;" horiz-adv-x="574" d="M287 727q58 0 110 -22.5t90 -60.5t60.5 -90t22.5 -110q0 -59 -22.5 -110.5t-60.5 -89.5t-90 -60.5t-110 -22.5q-59 0 -110.5 22.5t-89.5 60.5t-60.5 89.5t-22.5 110.5q0 58 22.5 110t60.5 90t89.5 60.5t110.5 22.5zM287 199q51 0 95.5 19.5t77.5 52.5t52.5 77.5 t19.5 95.5t-19.5 95.5t-52.5 77.5t-77.5 52.5t-95.5 19.5t-95.5 -19.5t-77.5 -52.5t-52.5 -77.5t-19.5 -95.5t19.5 -95.5t52.5 -77.5t77.5 -52.5t95.5 -19.5zM294 488q15 2 20 12t5 27q0 52 -7.5 70.5t-27.5 18.5t-27 -22t-7 -73v-33q1 -23 10 -33q4 -5 9 -8q-5 -3 -9 -8 q-9 -10 -10 -33v-39q0 -51 7 -73t27 -22t27.5 18t7.5 70q0 17 -5 27.5t-20 12.5l7 7q4 3 9 5.5t12 2.5t12 -3t9 -6q4 -4 7 -9q3 5 7 9q4 3 9 6t13 3q6 0 11 -2.5t9 -5.5q4 -4 8 -7q-15 -2 -20 -12.5t-5 -27.5q0 -38 -7 -61.5t-20 -36.5t-31 -17.5t-40 -4.5q-21 0 -39 7.5 t-31 25t-20 47t-7 74.5v12q-1 13 -4 20.5t-7 12.5t-9 8q5 3 9 8t7 12.5t4 20.5v6q0 45 7 74.5t20 47t31 25t39 7.5q22 0 40 -4.5t31 -17.5t20 -37t7 -62q0 -17 5 -27t20 -12l-8 -8q-9 -7 -20 -7q-13 0 -22 9q-4 4 -7 9q-3 -5 -7 -9q-9 -9 -21 -9t-21 7q-4 4 -7 8z" />
<glyph unicode="&#xaa;" horiz-adv-x="266" d="M233 376q2 -17 8 -27t21 -12q-2 -4 -6 -7q-7 -7 -20 -7q-7 0 -12.5 2.5t-9.5 5.5q-4 4 -8 9q-2 -5 -6 -9q-3 -3 -8 -5.5t-12 -2.5q-13 0 -22 7q-4 3 -8 7q15 2 19 13t2 26l-8 64l-59 10l-9 -74q-2 -15 2 -26t19 -13q-4 -4 -8 -7q-9 -7 -22 -7q-8 0 -12.5 2.5t-7.5 5.5 q-4 4 -6 9q-4 -5 -8 -9q-4 -3 -10 -5.5t-13 -2.5q-12 0 -19 7q-4 3 -6 7q15 2 21 12t8 27l13 111q1 13 -1 20.5t-5 12.5q-4 5 -8 8q6 3 10 8t8 12.5t7 20.5l12 104q2 17 0 28.5t-11 13.5q1 3 5 6q3 2 7 4t12 2q10 0 16.5 -6.5t9.5 -11.5q3 5 7.5 9t8.5 6q4 3 9 3t9 -3 q4 -2 8 -6t7 -9q4 5 10.5 11.5t16.5 6.5q11 0 19 -6q4 -3 5 -6q-10 -2 -11.5 -13.5t0.5 -28.5l12 -104q2 -13 6.5 -20.5t8.5 -12.5t10 -8q-4 -3 -8 -8q-3 -5 -5.5 -12.5t-1.5 -20.5zM158 488l-18 153q-2 10 -3 15.5t-2 7.5q-1 3 -2 3t-2 -3q-1 -2 -2.5 -7.5t-2.5 -15.5 l-17 -145z" />
<glyph unicode="&#xab;" horiz-adv-x="297" d="M175 513l-111 -153l111 -153h-60l-111 153l111 153h60zM293 513l-110 -153l110 -153h-59l-111 153l111 153h59z" />
<glyph unicode="&#xad;" d="M238 369v-77h-234v77h234v0z" />
<glyph unicode="&#xae;" horiz-adv-x="574" d="M386 299q7 -17 16 -27.5t25 -12.5q-2 -4 -6 -8q-7 -7 -18 -7q-17 0 -28 9q-6 4 -10 9q-3 -5 -7 -9q-9 -9 -22 -9q-11 0 -20 7l-8 8q14 2 14.5 12.5t-6.5 27.5l-42 99q-2 0 -5 -0.5t-6 -0.5v-99q0 -17 4.5 -27t19.5 -12q-3 -4 -7 -8q-9 -7 -21 -7q-8 0 -12.5 2.5t-8.5 6.5 t-7 9q-3 -5 -7 -9q-9 -9 -22 -9q-11 0 -20 7l-8 8q15 2 20 12.5t5 27.5v111q-1 13 -4 20.5t-6 12.5q-4 5 -9 8q5 3 9 8q3 5 6 12.5t4 20.5v106q0 17 -5 27.5t-20 11.5q4 3 8 7q4 3 8.5 5.5t11.5 2.5t12.5 -3t9.5 -6q4 -4 7 -8q4 4 11 8q6 3 15.5 6t23.5 3h29q35 0 60 -33.5 t25 -86.5q0 -37 -16.5 -65.5t-43.5 -46.5zM263 436q68 5 68 96q0 37 -11.5 62.5t-31.5 25.5q-12 0 -18.5 -8t-6.5 -28v-148zM287 727q58 0 110 -22.5t90 -60.5t60.5 -90t22.5 -110q0 -59 -22.5 -110.5t-60.5 -89.5t-90 -60.5t-110 -22.5q-59 0 -110.5 22.5t-89.5 60.5 t-60.5 89.5t-22.5 110.5q0 58 22.5 110t60.5 90t89.5 60.5t110.5 22.5zM287 199q51 0 95.5 19.5t77.5 52.5t52.5 77.5t19.5 95.5t-19.5 95.5t-52.5 77.5t-77.5 52.5t-95.5 19.5t-95.5 -19.5t-77.5 -52.5t-52.5 -77.5t-19.5 -95.5t19.5 -95.5t52.5 -77.5t77.5 -52.5 t95.5 -19.5z" />
<glyph unicode="&#xaf;" d="M238 627h-234v77h234v-77z" />
<glyph unicode="&#xb0;" horiz-adv-x="208" d="M104 727q42 0 71 -29t29 -71t-29 -71t-71 -29t-71 29t-29 71t29 71t71 29zM104 582q19 0 32 13t13 32t-13 32.5t-32 13.5t-32.5 -13.5t-13.5 -32.5t13.5 -32t32.5 -13z" />
<glyph unicode="&#xb1;" horiz-adv-x="296" d="M4 0v67h288v-67h-288zM182 291h110v-68h-110v-110h-68v110h-110v68h110v110h68v-110z" />
<glyph unicode="&#xb4;" horiz-adv-x="182" d="M53 528h-49l90 180l84 -42l-125 -138v0z" />
<glyph unicode="&#xb7;" horiz-adv-x="136" d="M68 428q26 0 45 -19t19 -46q0 -26 -19 -45t-45 -19q-27 0 -45.5 19t-18.5 45q0 27 18.5 46t45.5 19z" />
<glyph unicode="&#xb8;" horiz-adv-x="178" d="M73 -13q34 0 56.5 -14t33.5 -34.5t11 -45t-10.5 -45t-31.5 -34.5t-52 -14q-24 0 -41 11t-26 27t-9 35t9 34q5 -8 12 -13q6 -5 15.5 -9t23.5 -4q24 0 34.5 13t8 28t-18.5 28t-45 13h-22v65h52v-41v0z" />
<glyph unicode="&#xba;" horiz-adv-x="240" d="M217 569q1 -23 10 -33q4 -5 9 -8q-5 -3 -9 -8q-9 -10 -10 -33v-12q0 -44 -7 -73.5t-20 -47t-31 -25t-39 -7.5t-39 7.5t-31 25t-20 47t-7 73.5v12q-1 13 -4 20.5t-6 12.5q-4 5 -9 8q5 3 9 8q3 5 6 12.5t4 20.5v5q0 44 7 73.5t20 47t31 25t39 7.5t39 -7.5t31 -25t20 -47 t7 -73.5v-5zM120 354q20 0 27 22t7 73v38q-1 13 -4 20.5t-6 12.5q-4 5 -9 8q5 3 9 8q3 5 6 12.5t4 20.5v32q0 51 -7 73t-27 22q-17 0 -24 -15t-9 -49q0 -46 35 -38q-3 -9 -7 -15q-4 -5 -11 -9t-18 -2q1 -13 3.5 -20t6.5 -12t9 -8q-5 -3 -9 -8q-9 -10 -10 -33v-38 q0 -51 7 -73t27 -22z" />
<glyph unicode="&#xbb;" horiz-adv-x="297" d="M183 513l110 -153l-110 -153h-60l111 153l-111 153h60zM64 513l111 -153l-111 -153h-60l111 153l-111 153h60z" />
<glyph unicode="&#xbf;" horiz-adv-x="401" d="M271 598q-26 0 -45 19t-19 45q0 27 19 46t45 19q27 0 46 -19t19 -46q0 -26 -19 -45t-46 -19zM178 -1q-39 0 -71 8t-55 28.5t-35.5 55t-12.5 87.5q0 38 17 71.5t42.5 62.5t55 54t55 46.5t42.5 40t17 34.5q0 11 -7 19.5t-20 12.5q4 2 9 5q5 2 10.5 4t13.5 2t14 -2.5 t10 -4.5l8 -6q3 3 8 6q4 2 10.5 4.5t14.5 2.5q7 0 12.5 -2t10.5 -4q5 -3 9 -5q-17 -2 -22.5 -10t-4.5 -22q0 -35 -14 -62.5t-35.5 -51t-46.5 -46t-46.5 -49t-35.5 -59t-14 -75.5q0 -51 16 -69.5t45 -18.5q36 0 48.5 18t12.5 40q0 30 -8.5 49.5t-35.5 21.5q5 7 13 13 q7 5 16 9t21 4q13 0 22 -5t16 -11q7 -7 13 -15q5 8 13 15q6 6 15.5 11t22.5 5q11 0 20.5 -4t16.5 -9q8 -6 13 -13q-27 -2 -35.5 -21t-8.5 -50q0 -23 -13 -44t-36 -37t-55 -25t-71 -9z" />
<glyph unicode="&#xd7;" horiz-adv-x="260" d="M208 456l48 -48l-78 -77l78 -78l-48 -48l-78 78l-78 -78l-48 48l78 78l-78 77l48 48l78 -78l78 78v0z" />
<glyph unicode="&#x2c6;" horiz-adv-x="292" d="M111 701h70l104 -143h-82l-57 88l-57 -88h-82l104 143v0z" />
<glyph unicode="&#x2dc;" horiz-adv-x="354" d="M104 702q32 0 60.5 -12.5t57 -21t59 -4.5t66.5 38q-5 -31 -18 -56q-11 -21 -32.5 -38t-56.5 -17q-32 0 -60.5 11t-56.5 18t-56 3.5t-60 -32.5q7 30 20 55q11 21 29.5 38.5t47.5 17.5z" />
<glyph unicode="&#x2000;" horiz-adv-x="404" />
<glyph unicode="&#x2001;" horiz-adv-x="808" />
<glyph unicode="&#x2002;" horiz-adv-x="404" />
<glyph unicode="&#x2003;" horiz-adv-x="808" />
<glyph unicode="&#x2004;" horiz-adv-x="269" />
<glyph unicode="&#x2005;" horiz-adv-x="202" />
<glyph unicode="&#x2006;" horiz-adv-x="134" />
<glyph unicode="&#x2007;" horiz-adv-x="134" />
<glyph unicode="&#x2008;" horiz-adv-x="101" />
<glyph unicode="&#x2009;" horiz-adv-x="161" />
<glyph unicode="&#x200a;" horiz-adv-x="44" />
<glyph unicode="&#x2010;" d="M238 369v-77h-234v77h234v0z" />
<glyph unicode="&#x2011;" d="M238 369v-77h-234v77h234v0z" />
<glyph unicode="&#x2012;" d="M238 369v-77h-234v77h234v0z" />
<glyph unicode="&#x2013;" horiz-adv-x="508" d="M504 369v-77h-500v77h500v0z" />
<glyph unicode="&#x2014;" horiz-adv-x="1008" d="M1004 369v-77h-1000v77h1000v0z" />
<glyph unicode="&#x2018;" horiz-adv-x="142" d="M81 642q23 -3 38.5 -21t15.5 -42q0 -27 -19 -46t-45 -19q-27 0 -45.5 19t-18.5 46q0 50 15.5 78.5t34.5 43.5q22 18 51 24q-16 -17 -22 -39.5t-5 -43.5z" />
<glyph unicode="&#x2019;" horiz-adv-x="142" d="M71 729q26 0 45 -18.5t19 -45.5q0 -50 -16 -79t-35 -44q-22 -18 -50 -24q16 18 22 40.5t5 42.5q-23 4 -38.5 22t-15.5 42q0 27 18.5 45.5t45.5 18.5z" />
<glyph unicode="&#x201a;" horiz-adv-x="142" d="M71 128q26 0 45 -19t19 -45q0 -51 -16 -79.5t-35 -43.5q-22 -18 -50 -24q16 18 22 40t5 43q-23 4 -38.5 21.5t-15.5 42.5q0 26 18.5 45t45.5 19z" />
<glyph unicode="&#x201c;" horiz-adv-x="290" d="M81 647q23 -3 39 -21t16 -42q0 -27 -19 -46t-46 -19q-26 0 -45 19t-19 46q0 50 15.5 78.5t34.5 43.5q22 18 51 24q-16 -17 -22 -39.5t-5 -43.5zM228 647q23 -3 39 -21t16 -42q0 -27 -19 -46t-46 -19q-26 0 -45 19t-19 46q0 50 15.5 78.5t34.5 43.5q22 18 51 24 q-16 -17 -22 -39.5t-5 -43.5z" />
<glyph unicode="&#x201d;" horiz-adv-x="290" d="M218 736q27 0 46 -18.5t19 -45.5q0 -50 -16 -79t-35 -44q-22 -18 -50 -24q16 18 22 40.5t5 42.5q-23 4 -39 22t-16 42q0 27 19 45.5t45 18.5zM71 736q27 0 46 -18.5t19 -45.5q0 -50 -16 -79t-35 -44q-22 -18 -50 -24q16 18 22 40.5t5 42.5q-23 4 -39 22t-16 42 q0 27 19 45.5t45 18.5z" />
<glyph unicode="&#x201e;" horiz-adv-x="300" d="M229 128q26 0 45 -19t19 -45q0 -51 -16 -79.5t-35 -43.5q-22 -18 -50 -24q16 18 22 40t5 43q-23 4 -38.5 21.5t-15.5 42.5q0 26 18.5 45t45.5 19zM71 128q26 0 45 -19t19 -45q0 -51 -16 -79.5t-35 -43.5q-22 -18 -50 -24q16 18 22 40t5 43q-23 4 -38.5 21.5t-15.5 42.5 q0 26 18.5 45t45.5 19z" />
<glyph unicode="&#x2022;" horiz-adv-x="256" d="M128 484q25 0 47 -9.5t38.5 -26t26 -38.5t9.5 -47t-9.5 -47t-26 -38.5t-38.5 -26t-47 -9.5t-47 9.5t-38.5 26t-26 38.5t-9.5 47t9.5 47t26 38.5t38.5 26t47 9.5z" />
<glyph unicode="&#x2026;" horiz-adv-x="408" d="M68 128q26 0 45 -19t19 -45q0 -27 -19 -46t-45 -19q-27 0 -45.5 19t-18.5 46q0 26 18.5 45t45.5 19zM204 128q26 0 45 -19t19 -45q0 -27 -19 -46t-45 -19q-27 0 -45.5 19t-18.5 46q0 26 18.5 45t45.5 19zM340 128q26 0 45 -19t19 -45q0 -27 -19 -46t-45 -19 q-27 0 -45.5 19t-18.5 46q0 26 18.5 45t45.5 19z" />
<glyph unicode="&#x202f;" horiz-adv-x="161" />
<glyph unicode="&#x2039;" horiz-adv-x="184" d="M118 513h59l-111 -153l111 -153h-59l-111 153l111 153v0z" />
<glyph unicode="&#x203a;" horiz-adv-x="184" d="M7 513h59l111 -153l-111 -153h-59l111 153l-111 153v0z" />
<glyph unicode="&#x205f;" horiz-adv-x="202" />
<glyph unicode="&#x2122;" horiz-adv-x="638" d="M606 376q0 -17 5 -27t20 -12q-4 -4 -8 -7q-9 -7 -20 -7q-8 0 -12.5 2.5t-8.5 5.5q-4 4 -7 9q-3 -5 -7 -9q-4 -3 -9.5 -5.5t-12.5 -2.5q-11 0 -20 7q-4 3 -7 7q14 2 19 12t5 27v188l-54 -138q0 -17 4.5 -27.5t19.5 -11.5q-3 -4 -7 -8q-9 -7 -21 -7q-7 0 -12 2.5t-9 5.5 q-4 4 -7 9q-3 -5 -7 -9q-4 -3 -9 -5.5t-12 -2.5q-12 0 -21 7q-4 4 -7 8q14 1 19 10.5t5 26.5l-55 140v-188q0 -17 5 -27t19 -12q-3 -4 -7 -7q-9 -7 -20 -7q-8 0 -13 2.5t-9 5.5q-4 4 -7 9q-3 -5 -7 -9q-4 -3 -9 -5.5t-12 -2.5q-11 0 -20 7q-4 3 -8 7q15 2 20 12t5 27v111 q-1 13 -4 20.5t-6 12.5q-4 5 -9 8q5 3 9 8q3 5 6 12.5t4 20.5v104q0 17 -5 27.5t-20 11.5q4 3 8 7q4 3 8.5 5.5t11.5 2.5t12 -3t9 -6q4 -4 7 -8q3 4 7 8q4 3 9 6t13 3q6 0 11 -2.5t9 -5.5l7 -7q-10 0 -17 -7l80 -206l79 206q-7 7 -17 7l7 7q4 3 8.5 5.5t11.5 2.5t12.5 -3 t9.5 -6q4 -4 7 -8q3 4 7 8q4 3 8.5 6t12.5 3q6 0 11 -2.5t9 -5.5q4 -4 8 -7q-15 -1 -20 -11.5t-5 -27.5v-104q1 -23 10 -33q4 -5 9 -8q-5 -3 -9 -8q-9 -10 -10 -33v-111zM270 727q-7 -22 -11 -43q-4 -18 -5 -38t4 -36q-10 2 -17 6q-6 4 -10.5 11t-2.5 20q-3 -7 -7.5 -8 t-8.5 0q-5 1 -10 5q5 1 8.5 9.5t4 18t-3.5 17t-15 7.5q-26 0 -26 -37v-90q1 -23 10 -33q4 -5 9 -8q-5 -3 -9 -8q-9 -10 -10 -33v-111q0 -17 5 -27t19 -12q-3 -4 -7 -7q-9 -7 -20 -7q-8 0 -13 2.5t-9 5.5q-4 4 -7 9q-3 -5 -7 -9q-4 -3 -9 -5.5t-12 -2.5q-11 0 -20 7 q-4 3 -7 7q14 2 19 12t5 27v111q-1 13 -4 20.5t-6 12.5q-4 5 -9 8q5 3 9 8q3 5 6 12.5t4 20.5v90q0 37 -26 37q-11 0 -15 -7.5t-3.5 -17t4 -18t8.5 -9.5q-6 -4 -10 -5q-5 -1 -9 0t-7 8q2 -13 -3 -20t-11 -11q-7 -4 -17 -6q5 16 4 36t-4 38q-4 21 -11 43h82q14 0 23 -3t15 -6 q7 -4 11 -8q4 4 11 8q6 3 15.5 6t23.5 3h82z" />
<glyph unicode="&#x25fc;" horiz-adv-x="670" d="M0 670h670v-670h-670v670z" />
</font>
</defs>
</svg>
